<?xml version="1.0" encoding="UTF-8" standalone="no"?>
<!DOCTYPE svg PUBLIC "-//W3C//DTD SVG 1.1//EN"
 "http://www.w3.org/Graphics/SVG/1.1/DTD/svg11.dtd">
<!-- Generated by graphviz version 11.0.0 (20240428.1522)
 -->
<!-- Title: G Pages: 1 -->
<svg width="586pt" height="116pt" viewBox="0.00 0.00 586.08 116.00" xmlns="http://www.w3.org/2000/svg">
<g id="graph0" class="graph" transform="scale(1 1) rotate(0) translate(4 112)">
<title>G</title>
<polygon fill="white" stroke="none" points="-4,4 -4,-112 582.08,-112 582.08,4 -4,4"/>
<!-- :core:ui -->
<g id="node1" class="node">
<title>:core:ui</title>
<ellipse fill="none" stroke="black" cx="301.04" cy="-90" rx="37.59" ry="18"/>
<text text-anchor="middle" x="301.04" y="-84.58" font-family="Times New Roman,serif" font-size="14.00">:core:ui</text>
</g>
<!-- :core:analytics -->
<g id="node2" class="node">
<title>:core:analytics</title>
<ellipse fill="none" stroke="black" cx="63.04" cy="-18" rx="63.04" ry="18"/>
<text text-anchor="middle" x="63.04" y="-12.57" font-family="Times New Roman,serif" font-size="14.00">:core:analytics</text>
</g>
<!-- :core:ui&#45;&gt;:core:analytics -->
<g id="edge1" class="edge">
<title>:core:ui&#45;&gt;:core:analytics</title>
<path fill="none" stroke="red" stroke-width="2" d="M269.44,-79.7C230.45,-68.24 163.59,-48.57 116.55,-34.74"/>
<polygon fill="red" stroke="red" stroke-width="2" points="119.13,-31.85 108.55,-32.38 117.15,-38.56 119.13,-31.85"/>
</g>
<!-- :core:designsystem -->
<g id="node3" class="node">
<title>:core:designsystem</title>
<ellipse fill="none" stroke="black" cx="225.04" cy="-18" rx="81" ry="18"/>
<text text-anchor="middle" x="225.04" y="-12.57" font-family="Times New Roman,serif" font-size="14.00">:core:designsystem</text>
</g>
<!-- :core:ui&#45;&gt;:core:designsystem -->
<g id="edge2" class="edge">
<title>:core:ui&#45;&gt;:core:designsystem</title>
<path fill="none" stroke="black" d="M284.17,-73.46C274.65,-64.69 262.53,-53.53 251.74,-43.6"/>
<polygon fill="black" stroke="black" points="254.3,-41.19 244.57,-36.99 249.55,-46.34 254.3,-41.19"/>
</g>
<!-- :core:model -->
<g id="node4" class="node">
<title>:core:model</title>
<ellipse fill="none" stroke="black" cx="378.04" cy="-18" rx="54.06" ry="18"/>
<text text-anchor="middle" x="378.04" y="-12.57" font-family="Times New Roman,serif" font-size="14.00">:core:model</text>
</g>
<!-- :core:ui&#45;&gt;:core:model -->
<g id="edge3" class="edge">
<title>:core:ui&#45;&gt;:core:model</title>
<path fill="none" stroke="black" d="M317.75,-73.81C327.69,-64.78 340.52,-53.11 351.78,-42.87"/>
<polygon fill="black" stroke="black" points="353.86,-45.71 358.9,-36.4 349.15,-40.54 353.86,-45.71"/>
</g>
<!-- :core:common -->
<g id="node5" class="node">
<title>:core:common</title>
<ellipse fill="none" stroke="black" cx="514.04" cy="-18" rx="64.04" ry="18"/>
<text text-anchor="middle" x="514.04" y="-12.57" font-family="Times New Roman,serif" font-size="14.00">:core:common</text>
</g>
<!-- :core:ui&#45;&gt;:core:common -->
<g id="edge4" class="edge">
<title>:core:ui&#45;&gt;:core:common</title>
<path fill="none" stroke="black" d="M331.56,-78.97C365.7,-67.75 421.57,-49.39 462.52,-35.93"/>
<polygon fill="black" stroke="black" points="463.53,-39.28 471.93,-32.84 461.34,-32.63 463.53,-39.28"/>
</g>
</g>
</svg>
