<?xml version="1.0" encoding="UTF-8" standalone="no"?>
<!DOCTYPE svg PUBLIC "-//W3C//DTD SVG 1.1//EN"
 "http://www.w3.org/Graphics/SVG/1.1/DTD/svg11.dtd">
<!-- Generated by graphviz version 11.0.0 (20240428.1522)
 -->
<!-- Title: G Pages: 1 -->
<svg width="1065pt" height="332pt" viewBox="0.00 0.00 1064.94 332.00" xmlns="http://www.w3.org/2000/svg">
<g id="graph0" class="graph" transform="scale(1 1) rotate(0) translate(4 328)">
<title>G</title>
<polygon fill="white" stroke="none" points="-4,4 -4,-328 1060.94,-328 1060.94,4 -4,4"/>
<!-- :feature:employee_payment -->
<g id="node1" class="node">
<title>:feature:employee_payment</title>
<ellipse fill="none" stroke="black" cx="708.49" cy="-306" rx="111.44" ry="18"/>
<text text-anchor="middle" x="708.49" y="-300.57" font-family="Times New Roman,serif" font-size="14.00">:feature:employee_payment</text>
</g>
<!-- :core:model -->
<g id="node2" class="node">
<title>:core:model</title>
<ellipse fill="none" stroke="black" cx="249.49" cy="-18" rx="54.06" ry="18"/>
<text text-anchor="middle" x="249.49" y="-12.57" font-family="Times New Roman,serif" font-size="14.00">:core:model</text>
</g>
<!-- :feature:employee_payment&#45;&gt;:core:model -->
<g id="edge1" class="edge">
<title>:feature:employee_payment&#45;&gt;:core:model</title>
<path fill="none" stroke="black" d="M600.14,-301.54C479.24,-293.29 281.59,-266.38 136.49,-180 88.74,-151.57 40.34,-116.6 73.49,-72 77.35,-66.81 147,-46.91 197.5,-33.03"/>
<polygon fill="black" stroke="black" points="198.41,-36.41 207.13,-30.4 196.57,-29.66 198.41,-36.41"/>
</g>
<!-- :core:ui -->
<g id="node3" class="node">
<title>:core:ui</title>
<ellipse fill="none" stroke="black" cx="799.49" cy="-162" rx="37.59" ry="18"/>
<text text-anchor="middle" x="799.49" y="-156.57" font-family="Times New Roman,serif" font-size="14.00">:core:ui</text>
</g>
<!-- :feature:employee_payment&#45;&gt;:core:ui -->
<g id="edge2" class="edge">
<title>:feature:employee_payment&#45;&gt;:core:ui</title>
<path fill="none" stroke="black" d="M719.47,-287.87C735.2,-263.33 764.28,-217.94 782.72,-189.17"/>
<polygon fill="black" stroke="black" points="785.49,-191.33 787.94,-181.02 779.6,-187.55 785.49,-191.33"/>
</g>
<!-- :core:designsystem -->
<g id="node4" class="node">
<title>:core:designsystem</title>
<ellipse fill="none" stroke="black" cx="946.49" cy="-90" rx="81" ry="18"/>
<text text-anchor="middle" x="946.49" y="-84.58" font-family="Times New Roman,serif" font-size="14.00">:core:designsystem</text>
</g>
<!-- :feature:employee_payment&#45;&gt;:core:designsystem -->
<g id="edge3" class="edge">
<title>:feature:employee_payment&#45;&gt;:core:designsystem</title>
<path fill="none" stroke="black" d="M727.62,-287.82C739.17,-277.45 754.18,-263.97 767.49,-252 821.36,-203.57 884.33,-146.93 919.39,-115.38"/>
<polygon fill="black" stroke="black" points="921.46,-118.23 926.55,-108.94 916.78,-113.02 921.46,-118.23"/>
</g>
<!-- :core:data -->
<g id="node5" class="node">
<title>:core:data</title>
<ellipse fill="none" stroke="black" cx="511.49" cy="-162" rx="46.57" ry="18"/>
<text text-anchor="middle" x="511.49" y="-156.57" font-family="Times New Roman,serif" font-size="14.00">:core:data</text>
</g>
<!-- :feature:employee_payment&#45;&gt;:core:data -->
<g id="edge4" class="edge">
<title>:feature:employee_payment&#45;&gt;:core:data</title>
<path fill="none" stroke="black" d="M687.24,-288.17C664.03,-269.95 625.61,-240.24 591.49,-216 576.26,-205.18 559.02,-193.67 544.46,-184.15"/>
<polygon fill="black" stroke="black" points="546.42,-181.25 536.13,-178.74 542.61,-187.12 546.42,-181.25"/>
</g>
<!-- :core:common -->
<g id="node6" class="node">
<title>:core:common</title>
<ellipse fill="none" stroke="black" cx="579.49" cy="-18" rx="64.04" ry="18"/>
<text text-anchor="middle" x="579.49" y="-12.57" font-family="Times New Roman,serif" font-size="14.00">:core:common</text>
</g>
<!-- :feature:employee_payment&#45;&gt;:core:common -->
<g id="edge5" class="edge">
<title>:feature:employee_payment&#45;&gt;:core:common</title>
<path fill="none" stroke="black" d="M766.42,-290.2C883.2,-257.76 1128.25,-175.01 1036.49,-72 1011.5,-43.95 776.44,-28.5 653.56,-22.29"/>
<polygon fill="black" stroke="black" points="654.06,-18.81 643.9,-21.81 653.71,-25.8 654.06,-18.81"/>
</g>
<!-- :core:domain -->
<g id="node7" class="node">
<title>:core:domain</title>
<ellipse fill="none" stroke="black" cx="523.49" cy="-234" rx="58.55" ry="18"/>
<text text-anchor="middle" x="523.49" y="-228.57" font-family="Times New Roman,serif" font-size="14.00">:core:domain</text>
</g>
<!-- :feature:employee_payment&#45;&gt;:core:domain -->
<g id="edge6" class="edge">
<title>:feature:employee_payment&#45;&gt;:core:domain</title>
<path fill="none" stroke="red" stroke-width="2" d="M666.05,-288.94C637.35,-278.08 599.47,-263.75 569.96,-252.58"/>
<polygon fill="red" stroke="red" stroke-width="2" points="572.93,-249.96 562.33,-249.7 570.45,-256.51 572.93,-249.96"/>
</g>
<!-- :core:analytics -->
<g id="node8" class="node">
<title>:core:analytics</title>
<ellipse fill="none" stroke="black" cx="708.49" cy="-90" rx="63.04" ry="18"/>
<text text-anchor="middle" x="708.49" y="-84.58" font-family="Times New Roman,serif" font-size="14.00">:core:analytics</text>
</g>
<!-- :feature:employee_payment&#45;&gt;:core:analytics -->
<g id="edge7" class="edge">
<title>:feature:employee_payment&#45;&gt;:core:analytics</title>
<path fill="none" stroke="black" d="M708.49,-287.85C708.49,-251.14 708.49,-164.66 708.49,-119.53"/>
<polygon fill="black" stroke="black" points="711.99,-119.75 708.49,-109.75 704.99,-119.75 711.99,-119.75"/>
</g>
<!-- :core:ui&#45;&gt;:core:model -->
<g id="edge10" class="edge">
<title>:core:ui&#45;&gt;:core:model</title>
<path fill="none" stroke="black" d="M801.27,-143.68C802.31,-123.28 800.5,-89.91 780.49,-72 763.28,-56.6 450.74,-33.04 313.37,-23.37"/>
<polygon fill="black" stroke="black" points="313.94,-19.9 303.72,-22.69 313.45,-26.88 313.94,-19.9"/>
</g>
<!-- :core:ui&#45;&gt;:core:designsystem -->
<g id="edge9" class="edge">
<title>:core:ui&#45;&gt;:core:designsystem</title>
<path fill="none" stroke="black" d="M825.43,-148.65C846.95,-138.4 877.99,-123.62 903.25,-111.59"/>
<polygon fill="black" stroke="black" points="904.44,-114.9 911.96,-107.44 901.43,-108.58 904.44,-114.9"/>
</g>
<!-- :core:ui&#45;&gt;:core:common -->
<g id="edge11" class="edge">
<title>:core:ui&#45;&gt;:core:common</title>
<path fill="none" stroke="black" d="M808.96,-144.31C818.6,-124.82 829.99,-92.65 813.49,-72 793.42,-46.88 712.45,-32.78 651.33,-25.55"/>
<polygon fill="black" stroke="black" points="652.01,-22.1 641.67,-24.45 651.21,-29.06 652.01,-22.1"/>
</g>
<!-- :core:ui&#45;&gt;:core:analytics -->
<g id="edge8" class="edge">
<title>:core:ui&#45;&gt;:core:analytics</title>
<path fill="none" stroke="black" d="M780.19,-146.15C768.15,-136.89 752.4,-124.78 738.73,-114.26"/>
<polygon fill="black" stroke="black" points="740.93,-111.54 730.87,-108.21 736.66,-117.08 740.93,-111.54"/>
</g>
<!-- :core:data&#45;&gt;:core:model -->
<g id="edge15" class="edge">
<title>:core:data&#45;&gt;:core:model</title>
<path fill="none" stroke="black" d="M465.48,-158.51C362.33,-152.47 119.67,-135.46 95.49,-108 84.91,-95.99 86.2,-85.03 95.49,-72 101.78,-63.18 155.76,-45.92 198.06,-33.49"/>
<polygon fill="black" stroke="black" points="199,-36.86 207.62,-30.7 197.04,-30.14 199,-36.86"/>
</g>
<!-- :core:data&#45;&gt;:core:common -->
<g id="edge12" class="edge">
<title>:core:data&#45;&gt;:core:common</title>
<path fill="none" stroke="black" d="M530.45,-145.18C540.86,-135.49 553.11,-122.24 560.49,-108 570.22,-89.22 574.97,-65.74 577.29,-47.61"/>
<polygon fill="black" stroke="black" points="580.75,-48.13 578.35,-37.81 573.79,-47.38 580.75,-48.13"/>
</g>
<!-- :core:data&#45;&gt;:core:analytics -->
<g id="edge16" class="edge">
<title>:core:data&#45;&gt;:core:analytics</title>
<path fill="none" stroke="black" d="M544.91,-149.13C576.34,-137.95 623.79,-121.1 659.5,-108.41"/>
<polygon fill="black" stroke="black" points="660.5,-111.77 668.75,-105.12 658.16,-105.17 660.5,-111.77"/>
</g>
<!-- :core:database -->
<g id="node9" class="node">
<title>:core:database</title>
<ellipse fill="none" stroke="black" cx="487.49" cy="-90" rx="63.54" ry="18"/>
<text text-anchor="middle" x="487.49" y="-84.58" font-family="Times New Roman,serif" font-size="14.00">:core:database</text>
</g>
<!-- :core:data&#45;&gt;:core:database -->
<g id="edge13" class="edge">
<title>:core:data&#45;&gt;:core:database</title>
<path fill="none" stroke="red" stroke-width="2" d="M505.56,-143.7C503,-136.24 499.94,-127.32 497.08,-118.97"/>
<polygon fill="red" stroke="red" stroke-width="2" points="500.89,-119.29 494.33,-110.97 494.27,-121.56 500.89,-119.29"/>
</g>
<!-- :core:datastore -->
<g id="node10" class="node">
<title>:core:datastore</title>
<ellipse fill="none" stroke="black" cx="169.49" cy="-90" rx="65.04" ry="18"/>
<text text-anchor="middle" x="169.49" y="-84.58" font-family="Times New Roman,serif" font-size="14.00">:core:datastore</text>
</g>
<!-- :core:data&#45;&gt;:core:datastore -->
<g id="edge14" class="edge">
<title>:core:data&#45;&gt;:core:datastore</title>
<path fill="none" stroke="black" d="M470.09,-153.22C417.37,-143.22 323.5,-125.1 243.49,-108 238.85,-107.01 234.05,-105.96 229.23,-104.89"/>
<polygon fill="black" stroke="black" points="230,-101.48 219.48,-102.7 228.47,-108.31 230,-101.48"/>
</g>
<!-- :core:notifications -->
<g id="node11" class="node">
<title>:core:notifications</title>
<ellipse fill="none" stroke="black" cx="329.49" cy="-90" rx="76.51" ry="18"/>
<text text-anchor="middle" x="329.49" y="-84.58" font-family="Times New Roman,serif" font-size="14.00">:core:notifications</text>
</g>
<!-- :core:data&#45;&gt;:core:notifications -->
<g id="edge17" class="edge">
<title>:core:data&#45;&gt;:core:notifications</title>
<path fill="none" stroke="black" d="M479.37,-148.65C451.5,-137.93 410.71,-122.24 378.72,-109.94"/>
<polygon fill="black" stroke="black" points="380.24,-106.77 369.65,-106.45 377.73,-113.3 380.24,-106.77"/>
</g>
<!-- :core:domain&#45;&gt;:core:model -->
<g id="edge26" class="edge">
<title>:core:domain&#45;&gt;:core:model</title>
<path fill="none" stroke="black" d="M470.57,-225.89C364.35,-210.43 131.34,-170.06 84.49,-108 74.85,-95.23 75.06,-84.93 84.49,-72 88.03,-67.15 151.36,-47.72 198.51,-33.8"/>
<polygon fill="black" stroke="black" points="199.44,-37.17 208.05,-30.99 197.46,-30.46 199.44,-37.17"/>
</g>
<!-- :core:domain&#45;&gt;:core:data -->
<g id="edge25" class="edge">
<title>:core:domain&#45;&gt;:core:data</title>
<path fill="none" stroke="red" stroke-width="2" d="M520.52,-215.7C519.26,-208.32 517.75,-199.52 516.33,-191.25"/>
<polygon fill="red" stroke="red" stroke-width="2" points="520.07,-192.35 514.93,-183.09 513.17,-193.54 520.07,-192.35"/>
</g>
<!-- :core:domain&#45;&gt;:core:common -->
<g id="edge27" class="edge">
<title>:core:domain&#45;&gt;:core:common</title>
<path fill="none" stroke="black" d="M541.08,-216.45C550.37,-206.71 561.13,-193.66 567.49,-180 587.4,-137.23 586.32,-81.1 583.24,-47.67"/>
<polygon fill="black" stroke="black" points="586.74,-47.52 582.21,-37.95 579.78,-48.26 586.74,-47.52"/>
</g>
<!-- :core:database&#45;&gt;:core:model -->
<g id="edge18" class="edge">
<title>:core:database&#45;&gt;:core:model</title>
<path fill="none" stroke="red" stroke-width="2" d="M444.39,-76.32C403.81,-64.39 343.02,-46.51 300.14,-33.9"/>
<polygon fill="red" stroke="red" stroke-width="2" points="302.59,-30.97 292.01,-31.51 300.61,-37.69 302.59,-30.97"/>
</g>
<!-- :core:database&#45;&gt;:core:common -->
<g id="edge19" class="edge">
<title>:core:database&#45;&gt;:core:common</title>
<path fill="none" stroke="black" d="M508.83,-72.76C520.7,-63.73 535.69,-52.33 548.8,-42.35"/>
<polygon fill="black" stroke="black" points="550.9,-45.15 556.74,-36.31 546.67,-39.58 550.9,-45.15"/>
</g>
<!-- :core:datastore&#45;&gt;:core:model -->
<g id="edge21" class="edge">
<title>:core:datastore&#45;&gt;:core:model</title>
<path fill="none" stroke="black" d="M188.45,-72.41C198.58,-63.54 211.24,-52.47 222.39,-42.71"/>
<polygon fill="black" stroke="black" points="224.58,-45.44 229.8,-36.23 219.97,-40.18 224.58,-45.44"/>
</g>
<!-- :core:datastore&#45;&gt;:core:common -->
<g id="edge22" class="edge">
<title>:core:datastore&#45;&gt;:core:common</title>
<path fill="none" stroke="black" d="M217.55,-77.45C226.17,-75.52 235.08,-73.63 243.49,-72 336.03,-54.09 443.79,-37.91 511.82,-28.27"/>
<polygon fill="black" stroke="black" points="511.89,-31.79 521.3,-26.93 510.91,-24.86 511.89,-31.79"/>
</g>
<!-- :core:datastore&#45;proto -->
<g id="node12" class="node">
<title>:core:datastore&#45;proto</title>
<ellipse fill="none" stroke="black" cx="88.49" cy="-18" rx="88.49" ry="18"/>
<text text-anchor="middle" x="88.49" y="-12.57" font-family="Times New Roman,serif" font-size="14.00">:core:datastore&#45;proto</text>
</g>
<!-- :core:datastore&#45;&gt;:core:datastore&#45;proto -->
<g id="edge20" class="edge">
<title>:core:datastore&#45;&gt;:core:datastore&#45;proto</title>
<path fill="none" stroke="black" d="M150.29,-72.41C140.25,-63.73 127.77,-52.95 116.66,-43.34"/>
<polygon fill="black" stroke="black" points="119.11,-40.84 109.25,-36.95 114.53,-46.13 119.11,-40.84"/>
</g>
<!-- :core:notifications&#45;&gt;:core:model -->
<g id="edge23" class="edge">
<title>:core:notifications&#45;&gt;:core:model</title>
<path fill="none" stroke="black" d="M310.53,-72.41C300.39,-63.54 287.74,-52.47 276.58,-42.71"/>
<polygon fill="black" stroke="black" points="279.01,-40.18 269.17,-36.23 274.4,-45.44 279.01,-40.18"/>
</g>
<!-- :core:notifications&#45;&gt;:core:common -->
<g id="edge24" class="edge">
<title>:core:notifications&#45;&gt;:core:common</title>
<path fill="none" stroke="black" d="M377.4,-75.59C419.26,-63.86 480.06,-46.84 524.03,-34.53"/>
<polygon fill="black" stroke="black" points="524.96,-37.9 533.64,-31.84 523.07,-31.16 524.96,-37.9"/>
</g>
</g>
</svg>
