<?xml version="1.0" encoding="UTF-8" standalone="no"?>
<!DOCTYPE svg PUBLIC "-//W3C//DTD SVG 1.1//EN"
 "http://www.w3.org/Graphics/SVG/1.1/DTD/svg11.dtd">
<!-- Generated by graphviz version 11.0.0 (20240428.1522)
 -->
<!-- Title: G Pages: 1 -->
<svg width="705pt" height="260pt" viewBox="0.00 0.00 705.30 260.00" xmlns="http://www.w3.org/2000/svg">
<g id="graph0" class="graph" transform="scale(1 1) rotate(0) translate(4 256)">
<title>G</title>
<polygon fill="white" stroke="none" points="-4,4 -4,-256 701.3,-256 701.3,4 -4,4"/>
<!-- :core:domain -->
<g id="node1" class="node">
<title>:core:domain</title>
<ellipse fill="none" stroke="black" cx="340.06" cy="-234" rx="58.55" ry="18"/>
<text text-anchor="middle" x="340.06" y="-228.57" font-family="Times New Roman,serif" font-size="14.00">:core:domain</text>
</g>
<!-- :core:data -->
<g id="node2" class="node">
<title>:core:data</title>
<ellipse fill="none" stroke="black" cx="340.06" cy="-162" rx="46.57" ry="18"/>
<text text-anchor="middle" x="340.06" y="-156.57" font-family="Times New Roman,serif" font-size="14.00">:core:data</text>
</g>
<!-- :core:domain&#45;&gt;:core:data -->
<g id="edge1" class="edge">
<title>:core:domain&#45;&gt;:core:data</title>
<path fill="none" stroke="red" stroke-width="2" d="M340.06,-215.7C340.06,-208.41 340.06,-199.73 340.06,-191.54"/>
<polygon fill="red" stroke="red" stroke-width="2" points="343.56,-193.13 340.06,-183.13 336.56,-193.13 343.56,-193.13"/>
</g>
<!-- :core:model -->
<g id="node3" class="node">
<title>:core:model</title>
<ellipse fill="none" stroke="black" cx="54.06" cy="-18" rx="54.06" ry="18"/>
<text text-anchor="middle" x="54.06" y="-12.57" font-family="Times New Roman,serif" font-size="14.00">:core:model</text>
</g>
<!-- :core:domain&#45;&gt;:core:model -->
<g id="edge2" class="edge">
<title>:core:domain&#45;&gt;:core:model</title>
<path fill="none" stroke="black" d="M283.62,-228.82C210.43,-220.01 85.37,-192.7 28.06,-108 15.35,-89.21 24.51,-64.15 35.31,-45.4"/>
<polygon fill="black" stroke="black" points="38.23,-47.34 40.55,-37 32.29,-43.63 38.23,-47.34"/>
</g>
<!-- :core:common -->
<g id="node4" class="node">
<title>:core:common</title>
<ellipse fill="none" stroke="black" cx="419.06" cy="-18" rx="64.04" ry="18"/>
<text text-anchor="middle" x="419.06" y="-12.57" font-family="Times New Roman,serif" font-size="14.00">:core:common</text>
</g>
<!-- :core:domain&#45;&gt;:core:common -->
<g id="edge3" class="edge">
<title>:core:domain&#45;&gt;:core:common</title>
<path fill="none" stroke="black" d="M398.14,-231.28C478.57,-225.4 621.34,-201.52 687.06,-108 736.83,-37.17 590.44,-21.71 494.82,-18.93"/>
<polygon fill="black" stroke="black" points="495.02,-15.44 484.94,-18.69 494.85,-22.43 495.02,-15.44"/>
</g>
<!-- :core:data&#45;&gt;:core:model -->
<g id="edge7" class="edge">
<title>:core:data&#45;&gt;:core:model</title>
<path fill="none" stroke="black" d="M293.35,-159.78C217.27,-156.7 71.84,-145.89 40.06,-108 25.87,-91.09 31.58,-65.79 39.56,-46.48"/>
<polygon fill="black" stroke="black" points="42.66,-48.11 43.62,-37.56 36.29,-45.21 42.66,-48.11"/>
</g>
<!-- :core:data&#45;&gt;:core:common -->
<g id="edge4" class="edge">
<title>:core:data&#45;&gt;:core:common</title>
<path fill="none" stroke="black" d="M386.67,-160.13C425.35,-156.63 478.2,-144.83 505.06,-108 514.48,-95.07 512.86,-85.97 505.06,-72 496.79,-57.19 482.5,-46.01 467.92,-37.83"/>
<polygon fill="black" stroke="black" points="469.68,-34.8 459.19,-33.33 466.47,-41.02 469.68,-34.8"/>
</g>
<!-- :core:database -->
<g id="node5" class="node">
<title>:core:database</title>
<ellipse fill="none" stroke="black" cx="261.06" cy="-90" rx="63.54" ry="18"/>
<text text-anchor="middle" x="261.06" y="-84.58" font-family="Times New Roman,serif" font-size="14.00">:core:database</text>
</g>
<!-- :core:data&#45;&gt;:core:database -->
<g id="edge5" class="edge">
<title>:core:data&#45;&gt;:core:database</title>
<path fill="none" stroke="red" stroke-width="2" d="M322.13,-145.12C312.15,-136.27 299.51,-125.07 288.32,-115.16"/>
<polygon fill="red" stroke="red" stroke-width="2" points="291.81,-113.57 282,-109.56 287.17,-118.81 291.81,-113.57"/>
</g>
<!-- :core:datastore -->
<g id="node6" class="node">
<title>:core:datastore</title>
<ellipse fill="none" stroke="black" cx="114.06" cy="-90" rx="65.04" ry="18"/>
<text text-anchor="middle" x="114.06" y="-84.58" font-family="Times New Roman,serif" font-size="14.00">:core:datastore</text>
</g>
<!-- :core:data&#45;&gt;:core:datastore -->
<g id="edge6" class="edge">
<title>:core:data&#45;&gt;:core:datastore</title>
<path fill="none" stroke="black" d="M304.5,-149.99C267.64,-138.57 209.6,-120.59 167.28,-107.48"/>
<polygon fill="black" stroke="black" points="168.37,-104.16 157.78,-104.54 166.3,-110.84 168.37,-104.16"/>
</g>
<!-- :core:analytics -->
<g id="node7" class="node">
<title>:core:analytics</title>
<ellipse fill="none" stroke="black" cx="615.06" cy="-90" rx="63.04" ry="18"/>
<text text-anchor="middle" x="615.06" y="-84.58" font-family="Times New Roman,serif" font-size="14.00">:core:analytics</text>
</g>
<!-- :core:data&#45;&gt;:core:analytics -->
<g id="edge8" class="edge">
<title>:core:data&#45;&gt;:core:analytics</title>
<path fill="none" stroke="black" d="M378.3,-151.27C425,-139.38 504.43,-119.16 558.29,-105.45"/>
<polygon fill="black" stroke="black" points="559.07,-108.86 567.9,-103 557.35,-102.08 559.07,-108.86"/>
</g>
<!-- :core:notifications -->
<g id="node8" class="node">
<title>:core:notifications</title>
<ellipse fill="none" stroke="black" cx="419.06" cy="-90" rx="76.51" ry="18"/>
<text text-anchor="middle" x="419.06" y="-84.58" font-family="Times New Roman,serif" font-size="14.00">:core:notifications</text>
</g>
<!-- :core:data&#45;&gt;:core:notifications -->
<g id="edge9" class="edge">
<title>:core:data&#45;&gt;:core:notifications</title>
<path fill="none" stroke="black" d="M357.98,-145.12C367.9,-136.33 380.43,-125.23 391.56,-115.37"/>
<polygon fill="black" stroke="black" points="393.8,-118.05 398.97,-108.8 389.16,-112.81 393.8,-118.05"/>
</g>
<!-- :core:database&#45;&gt;:core:model -->
<g id="edge10" class="edge">
<title>:core:database&#45;&gt;:core:model</title>
<path fill="none" stroke="red" stroke-width="2" d="M221.64,-75.67C187.51,-64.13 138.07,-47.41 101.73,-35.12"/>
<polygon fill="red" stroke="red" stroke-width="2" points="104.36,-32.32 93.77,-32.43 102.12,-38.95 104.36,-32.32"/>
</g>
<!-- :core:database&#45;&gt;:core:common -->
<g id="edge11" class="edge">
<title>:core:database&#45;&gt;:core:common</title>
<path fill="none" stroke="black" d="M294.18,-74.33C317.8,-63.86 349.8,-49.69 375.49,-38.3"/>
<polygon fill="black" stroke="black" points="376.6,-41.64 384.32,-34.39 373.76,-35.24 376.6,-41.64"/>
</g>
<!-- :core:datastore&#45;&gt;:core:model -->
<g id="edge13" class="edge">
<title>:core:datastore&#45;&gt;:core:model</title>
<path fill="none" stroke="black" d="M99.53,-72.05C92.38,-63.71 83.62,-53.49 75.7,-44.25"/>
<polygon fill="black" stroke="black" points="78.6,-42.25 69.43,-36.94 73.28,-46.81 78.6,-42.25"/>
</g>
<!-- :core:datastore&#45;&gt;:core:common -->
<g id="edge14" class="edge">
<title>:core:datastore&#45;&gt;:core:common</title>
<path fill="none" stroke="black" d="M163.02,-77.75C171.37,-75.83 179.96,-73.86 188.06,-72 246.41,-58.6 313.05,-43.31 359.71,-32.61"/>
<polygon fill="black" stroke="black" points="360.39,-36.05 369.36,-30.4 358.83,-29.22 360.39,-36.05"/>
</g>
<!-- :core:datastore&#45;proto -->
<g id="node9" class="node">
<title>:core:datastore&#45;proto</title>
<ellipse fill="none" stroke="black" cx="215.06" cy="-18" rx="88.49" ry="18"/>
<text text-anchor="middle" x="215.06" y="-12.57" font-family="Times New Roman,serif" font-size="14.00">:core:datastore&#45;proto</text>
</g>
<!-- :core:datastore&#45;&gt;:core:datastore&#45;proto -->
<g id="edge12" class="edge">
<title>:core:datastore&#45;&gt;:core:datastore&#45;proto</title>
<path fill="none" stroke="black" d="M137.48,-72.76C150.68,-63.62 167.37,-52.05 181.89,-41.99"/>
<polygon fill="black" stroke="black" points="183.59,-45.07 189.81,-36.5 179.6,-39.32 183.59,-45.07"/>
</g>
<!-- :core:notifications&#45;&gt;:core:model -->
<g id="edge15" class="edge">
<title>:core:notifications&#45;&gt;:core:model</title>
<path fill="none" stroke="black" d="M362.87,-77.5C353.27,-75.61 343.38,-73.71 334.06,-72 238.33,-54.45 213.2,-56.52 118.06,-36 114,-35.12 109.81,-34.16 105.61,-33.14"/>
<polygon fill="black" stroke="black" points="106.56,-29.77 96.01,-30.74 104.86,-36.56 106.56,-29.77"/>
</g>
<!-- :core:notifications&#45;&gt;:core:common -->
<g id="edge16" class="edge">
<title>:core:notifications&#45;&gt;:core:common</title>
<path fill="none" stroke="black" d="M419.06,-71.7C419.06,-64.41 419.06,-55.73 419.06,-47.54"/>
<polygon fill="black" stroke="black" points="422.56,-47.62 419.06,-37.62 415.56,-47.62 422.56,-47.62"/>
</g>
</g>
</svg>
