<?xml version="1.0" encoding="UTF-8" standalone="no"?>
<!DOCTYPE svg PUBLIC "-//W3C//DTD SVG 1.1//EN"
 "http://www.w3.org/Graphics/SVG/1.1/DTD/svg11.dtd">
<!-- Generated by graphviz version 11.0.0 (20240428.1522)
 -->
<!-- Title: G Pages: 1 -->
<svg width="960pt" height="404pt" viewBox="0.00 0.00 960.00 404.00" xmlns="http://www.w3.org/2000/svg">
<g id="graph0" class="graph" transform="scale(1 1) rotate(0) translate(4 400)">
<title>G</title>
<polygon fill="white" stroke="none" points="-4,4 -4,-400 956,-400 956,4 -4,4"/>
<!-- :feature:product -->
<g id="node1" class="node">
<title>:feature:product</title>
<ellipse fill="none" stroke="black" cx="628" cy="-378" rx="69.03" ry="18"/>
<text text-anchor="middle" x="628" y="-372.57" font-family="Times New Roman,serif" font-size="14.00">:feature:product</text>
</g>
<!-- :core:model -->
<g id="node2" class="node">
<title>:core:model</title>
<ellipse fill="none" stroke="black" cx="637" cy="-18" rx="54.06" ry="18"/>
<text text-anchor="middle" x="637" y="-12.57" font-family="Times New Roman,serif" font-size="14.00">:core:model</text>
</g>
<!-- :feature:product&#45;&gt;:core:model -->
<g id="edge1" class="edge">
<title>:feature:product&#45;&gt;:core:model</title>
<path fill="none" stroke="black" d="M697.11,-376.09C792.26,-370.77 952,-345.39 952,-235 952,-235 952,-235 952,-161 952,-52.56 794.94,-26.46 702.62,-20.49"/>
<polygon fill="black" stroke="black" points="702.85,-16.99 692.66,-19.91 702.44,-23.98 702.85,-16.99"/>
</g>
<!-- :core:ui -->
<g id="node3" class="node">
<title>:core:ui</title>
<ellipse fill="none" stroke="black" cx="762" cy="-234" rx="37.59" ry="18"/>
<text text-anchor="middle" x="762" y="-228.57" font-family="Times New Roman,serif" font-size="14.00">:core:ui</text>
</g>
<!-- :feature:product&#45;&gt;:core:ui -->
<g id="edge2" class="edge">
<title>:feature:product&#45;&gt;:core:ui</title>
<path fill="none" stroke="black" d="M680.21,-365.79C704.09,-358 730.65,-345.09 747,-324 760.21,-306.95 763.55,-282.51 763.82,-263.55"/>
<polygon fill="black" stroke="black" points="767.32,-263.75 763.66,-253.81 760.32,-263.86 767.32,-263.75"/>
</g>
<!-- :core:designsystem -->
<g id="node4" class="node">
<title>:core:designsystem</title>
<ellipse fill="none" stroke="black" cx="615" cy="-162" rx="81" ry="18"/>
<text text-anchor="middle" x="615" y="-156.57" font-family="Times New Roman,serif" font-size="14.00">:core:designsystem</text>
</g>
<!-- :feature:product&#45;&gt;:core:designsystem -->
<g id="edge3" class="edge">
<title>:feature:product&#45;&gt;:core:designsystem</title>
<path fill="none" stroke="black" d="M616.81,-360.14C610.84,-350.1 604.09,-336.85 601,-324 590.03,-278.32 599.4,-223.52 607.2,-191.07"/>
<polygon fill="black" stroke="black" points="610.52,-192.21 609.58,-181.65 603.73,-190.49 610.52,-192.21"/>
</g>
<!-- :core:data -->
<g id="node5" class="node">
<title>:core:data</title>
<ellipse fill="none" stroke="black" cx="431" cy="-162" rx="46.57" ry="18"/>
<text text-anchor="middle" x="431" y="-156.57" font-family="Times New Roman,serif" font-size="14.00">:core:data</text>
</g>
<!-- :feature:product&#45;&gt;:core:data -->
<g id="edge4" class="edge">
<title>:feature:product&#45;&gt;:core:data</title>
<path fill="none" stroke="black" d="M583.17,-364.04C534.32,-347.2 458.89,-312.53 427,-252 417.24,-233.48 418.92,-209.66 422.67,-191.33"/>
<polygon fill="black" stroke="black" points="426.06,-192.2 424.98,-181.66 419.25,-190.57 426.06,-192.2"/>
</g>
<!-- :core:common -->
<g id="node6" class="node">
<title>:core:common</title>
<ellipse fill="none" stroke="black" cx="148" cy="-18" rx="64.04" ry="18"/>
<text text-anchor="middle" x="148" y="-12.57" font-family="Times New Roman,serif" font-size="14.00">:core:common</text>
</g>
<!-- :feature:product&#45;&gt;:core:common -->
<g id="edge5" class="edge">
<title>:feature:product&#45;&gt;:core:common</title>
<path fill="none" stroke="black" d="M559,-375.87C395.86,-371.32 0,-348.6 0,-235 0,-235 0,-235 0,-161 0,-102.98 59.95,-61.29 103.54,-38.65"/>
<polygon fill="black" stroke="black" points="104.95,-41.86 112.32,-34.25 101.81,-35.6 104.95,-41.86"/>
</g>
<!-- :core:domain -->
<g id="node7" class="node">
<title>:core:domain</title>
<ellipse fill="none" stroke="black" cx="495" cy="-234" rx="58.55" ry="18"/>
<text text-anchor="middle" x="495" y="-228.57" font-family="Times New Roman,serif" font-size="14.00">:core:domain</text>
</g>
<!-- :feature:product&#45;&gt;:core:domain -->
<g id="edge6" class="edge">
<title>:feature:product&#45;&gt;:core:domain</title>
<path fill="none" stroke="black" d="M607.54,-360.34C595.58,-350.26 580.44,-336.91 568,-324 548.51,-303.79 528.42,-278.95 514.27,-260.66"/>
<polygon fill="black" stroke="black" points="517.22,-258.75 508.36,-252.95 511.66,-263.01 517.22,-258.75"/>
</g>
<!-- :core:analytics -->
<g id="node8" class="node">
<title>:core:analytics</title>
<ellipse fill="none" stroke="black" cx="747" cy="-90" rx="63.04" ry="18"/>
<text text-anchor="middle" x="747" y="-84.58" font-family="Times New Roman,serif" font-size="14.00">:core:analytics</text>
</g>
<!-- :feature:product&#45;&gt;:core:analytics -->
<g id="edge7" class="edge">
<title>:feature:product&#45;&gt;:core:analytics</title>
<path fill="none" stroke="black" d="M681.07,-366.16C709.35,-358.25 743.31,-345.11 768,-324 795.99,-300.07 799.57,-287.6 809,-252 821.99,-202.93 790.61,-148.27 767.92,-116.93"/>
<polygon fill="black" stroke="black" points="770.92,-115.1 762.12,-109.19 765.31,-119.3 770.92,-115.1"/>
</g>
<!-- :feature:printer -->
<g id="node9" class="node">
<title>:feature:printer</title>
<ellipse fill="none" stroke="black" cx="674" cy="-306" rx="63.54" ry="18"/>
<text text-anchor="middle" x="674" y="-300.57" font-family="Times New Roman,serif" font-size="14.00">:feature:printer</text>
</g>
<!-- :feature:product&#45;&gt;:feature:printer -->
<g id="edge8" class="edge">
<title>:feature:product&#45;&gt;:feature:printer</title>
<path fill="none" stroke="red" stroke-width="2" d="M639.14,-360.05C644.39,-352.06 650.78,-342.33 656.65,-333.4"/>
<polygon fill="red" stroke="red" stroke-width="2" points="658.74,-336.6 661.3,-326.32 652.89,-332.75 658.74,-336.6"/>
</g>
<!-- :core:ui&#45;&gt;:core:model -->
<g id="edge11" class="edge">
<title>:core:ui&#45;&gt;:core:model</title>
<path fill="none" stroke="black" d="M793.38,-223.62C814.03,-215.63 839.49,-201.88 852,-180 875.82,-138.33 881.6,-109.79 852,-72 833.31,-48.15 756.12,-33.57 699.55,-25.9"/>
<polygon fill="black" stroke="black" points="700.05,-22.43 689.68,-24.6 699.14,-29.37 700.05,-22.43"/>
</g>
<!-- :core:ui&#45;&gt;:core:designsystem -->
<g id="edge10" class="edge">
<title>:core:ui&#45;&gt;:core:designsystem</title>
<path fill="none" stroke="black" d="M736.06,-220.65C714.54,-210.4 683.5,-195.62 658.24,-183.59"/>
<polygon fill="black" stroke="black" points="660.06,-180.58 649.53,-179.44 657.05,-186.9 660.06,-180.58"/>
</g>
<!-- :core:ui&#45;&gt;:core:common -->
<g id="edge12" class="edge">
<title>:core:ui&#45;&gt;:core:common</title>
<path fill="none" stroke="black" d="M776.9,-217.12C804.78,-185.51 858.56,-114.17 819,-72 776.11,-26.28 318.3,-42.88 256,-36 241.86,-34.44 226.74,-32.33 212.42,-30.14"/>
<polygon fill="black" stroke="black" points="213.07,-26.7 202.65,-28.6 211.98,-33.61 213.07,-26.7"/>
</g>
<!-- :core:ui&#45;&gt;:core:analytics -->
<g id="edge9" class="edge">
<title>:core:ui&#45;&gt;:core:analytics</title>
<path fill="none" stroke="black" d="M760.16,-215.59C757.63,-191.61 753.04,-148.14 750,-119.42"/>
<polygon fill="black" stroke="black" points="753.5,-119.19 748.97,-109.62 746.54,-119.93 753.5,-119.19"/>
</g>
<!-- :core:data&#45;&gt;:core:model -->
<g id="edge16" class="edge">
<title>:core:data&#45;&gt;:core:model</title>
<path fill="none" stroke="black" d="M467.28,-150.39C515.15,-136.27 593.97,-112.56 599,-108 616.5,-92.13 626.24,-66.85 631.47,-47.27"/>
<polygon fill="black" stroke="black" points="634.83,-48.25 633.75,-37.71 628.02,-46.63 634.83,-48.25"/>
</g>
<!-- :core:data&#45;&gt;:core:common -->
<g id="edge13" class="edge">
<title>:core:data&#45;&gt;:core:common</title>
<path fill="none" stroke="black" d="M384.3,-159.72C308.63,-156.55 164.51,-145.61 133,-108 118.8,-91.05 124.81,-65.75 133.07,-46.45"/>
<polygon fill="black" stroke="black" points="136.17,-48.07 137.26,-37.54 129.84,-45.09 136.17,-48.07"/>
</g>
<!-- :core:data&#45;&gt;:core:analytics -->
<g id="edge17" class="edge">
<title>:core:data&#45;&gt;:core:analytics</title>
<path fill="none" stroke="black" d="M470.7,-152.21C525.2,-140.13 623.63,-118.33 687.1,-104.27"/>
<polygon fill="black" stroke="black" points="687.66,-107.73 696.66,-102.15 686.14,-100.9 687.66,-107.73"/>
</g>
<!-- :core:database -->
<g id="node10" class="node">
<title>:core:database</title>
<ellipse fill="none" stroke="black" cx="206" cy="-90" rx="63.54" ry="18"/>
<text text-anchor="middle" x="206" y="-84.58" font-family="Times New Roman,serif" font-size="14.00">:core:database</text>
</g>
<!-- :core:data&#45;&gt;:core:database -->
<g id="edge14" class="edge">
<title>:core:data&#45;&gt;:core:database</title>
<path fill="none" stroke="red" stroke-width="2" d="M395.84,-150.06C359.08,-138.63 300.97,-120.55 258.71,-107.4"/>
<polygon fill="red" stroke="red" stroke-width="2" points="261.27,-104.53 250.68,-104.9 259.19,-111.21 261.27,-104.53"/>
</g>
<!-- :core:datastore -->
<g id="node11" class="node">
<title>:core:datastore</title>
<ellipse fill="none" stroke="black" cx="353" cy="-90" rx="65.04" ry="18"/>
<text text-anchor="middle" x="353" y="-84.58" font-family="Times New Roman,serif" font-size="14.00">:core:datastore</text>
</g>
<!-- :core:data&#45;&gt;:core:datastore -->
<g id="edge15" class="edge">
<title>:core:data&#45;&gt;:core:datastore</title>
<path fill="none" stroke="black" d="M413.3,-145.12C403.44,-136.27 390.96,-125.07 379.92,-115.16"/>
<polygon fill="black" stroke="black" points="382.35,-112.64 372.57,-108.56 377.67,-117.85 382.35,-112.64"/>
</g>
<!-- :core:notifications -->
<g id="node12" class="node">
<title>:core:notifications</title>
<ellipse fill="none" stroke="black" cx="513" cy="-90" rx="76.51" ry="18"/>
<text text-anchor="middle" x="513" y="-84.58" font-family="Times New Roman,serif" font-size="14.00">:core:notifications</text>
</g>
<!-- :core:data&#45;&gt;:core:notifications -->
<g id="edge18" class="edge">
<title>:core:data&#45;&gt;:core:notifications</title>
<path fill="none" stroke="black" d="M449.61,-145.12C460,-136.24 473.16,-125.01 484.8,-115.08"/>
<polygon fill="black" stroke="black" points="486.84,-117.93 492.17,-108.78 482.29,-112.61 486.84,-117.93"/>
</g>
<!-- :core:domain&#45;&gt;:core:model -->
<g id="edge27" class="edge">
<title>:core:domain&#45;&gt;:core:model</title>
<path fill="none" stroke="black" d="M496.41,-215.63C498.92,-195.8 505.86,-163.6 525,-144 557.71,-110.5 594.43,-144.3 624,-108 637.57,-91.33 640.31,-66.86 639.94,-47.79"/>
<polygon fill="black" stroke="black" points="643.44,-47.78 639.43,-37.97 636.45,-48.14 643.44,-47.78"/>
</g>
<!-- :core:domain&#45;&gt;:core:data -->
<g id="edge26" class="edge">
<title>:core:domain&#45;&gt;:core:data</title>
<path fill="none" stroke="red" stroke-width="2" d="M479.83,-216.41C472.02,-207.87 462.34,-197.28 453.66,-187.79"/>
<polygon fill="red" stroke="red" stroke-width="2" points="457.43,-186.72 448.1,-181.7 452.27,-191.45 457.43,-186.72"/>
</g>
<!-- :core:domain&#45;&gt;:core:common -->
<g id="edge28" class="edge">
<title>:core:domain&#45;&gt;:core:common</title>
<path fill="none" stroke="black" d="M436.15,-232.99C350.39,-229.4 193.41,-208.55 121,-108 107.64,-89.45 117.31,-64.2 128.63,-45.34"/>
<polygon fill="black" stroke="black" points="131.45,-47.42 133.94,-37.13 125.57,-43.62 131.45,-47.42"/>
</g>
<!-- :feature:printer&#45;&gt;:core:model -->
<g id="edge29" class="edge">
<title>:feature:printer&#45;&gt;:core:model</title>
<path fill="none" stroke="black" d="M719.1,-293.05C746.63,-284.41 781.67,-270.91 809,-252 879.07,-203.52 928.3,-138.48 875,-72 853.5,-45.18 763.51,-31.06 700.57,-24.32"/>
<polygon fill="black" stroke="black" points="700.97,-20.84 690.66,-23.3 700.25,-27.81 700.97,-20.84"/>
</g>
<!-- :feature:printer&#45;&gt;:core:ui -->
<g id="edge30" class="edge">
<title>:feature:printer&#45;&gt;:core:ui</title>
<path fill="none" stroke="black" d="M694.41,-288.76C706.26,-279.34 721.35,-267.34 734.26,-257.06"/>
<polygon fill="black" stroke="black" points="736.37,-259.86 742.02,-250.89 732.01,-254.38 736.37,-259.86"/>
</g>
<!-- :feature:printer&#45;&gt;:core:designsystem -->
<g id="edge31" class="edge">
<title>:feature:printer&#45;&gt;:core:designsystem</title>
<path fill="none" stroke="black" d="M666.88,-287.87C656.87,-263.78 638.52,-219.6 626.54,-190.77"/>
<polygon fill="black" stroke="black" points="629.79,-189.48 622.72,-181.59 623.33,-192.16 629.79,-189.48"/>
</g>
<!-- :feature:printer&#45;&gt;:core:data -->
<g id="edge32" class="edge">
<title>:feature:printer&#45;&gt;:core:data</title>
<path fill="none" stroke="black" d="M656.74,-288.45C635.87,-269.1 599.04,-237.06 563,-216 535.95,-200.19 503.29,-187.04 477.22,-177.78"/>
<polygon fill="black" stroke="black" points="478.52,-174.53 467.92,-174.56 476.22,-181.14 478.52,-174.53"/>
</g>
<!-- :feature:printer&#45;&gt;:core:common -->
<g id="edge33" class="edge">
<title>:feature:printer&#45;&gt;:core:common</title>
<path fill="none" stroke="black" d="M618.58,-296.83C567.87,-288.49 491.2,-273.68 427,-252 284.59,-203.92 201.54,-234.91 121,-108 108.88,-88.9 118.11,-64.06 128.95,-45.48"/>
<polygon fill="black" stroke="black" points="131.82,-47.48 134.2,-37.15 125.9,-43.74 131.82,-47.48"/>
</g>
<!-- :feature:printer&#45;&gt;:core:domain -->
<g id="edge34" class="edge">
<title>:feature:printer&#45;&gt;:core:domain</title>
<path fill="none" stroke="red" stroke-width="2" d="M637.78,-290.83C609.84,-279.91 571.03,-264.73 540.92,-252.96"/>
<polygon fill="red" stroke="red" stroke-width="2" points="543.66,-250.27 533.07,-249.89 541.11,-256.79 543.66,-250.27"/>
</g>
<!-- :feature:printer&#45;&gt;:core:analytics -->
<g id="edge35" class="edge">
<title>:feature:printer&#45;&gt;:core:analytics</title>
<path fill="none" stroke="black" d="M679.85,-287.85C692.42,-250.99 722.13,-163.92 737.46,-118.96"/>
<polygon fill="black" stroke="black" points="740.72,-120.26 740.63,-109.66 734.09,-118 740.72,-120.26"/>
</g>
<!-- :core:database&#45;&gt;:core:model -->
<g id="edge19" class="edge">
<title>:core:database&#45;&gt;:core:model</title>
<path fill="none" stroke="red" stroke-width="2" d="M253,-77.46C261.62,-75.51 270.56,-73.6 279,-72 382.56,-52.31 504.14,-35.66 575.65,-26.53"/>
<polygon fill="red" stroke="red" stroke-width="2" points="574.2,-30.24 583.68,-25.51 573.32,-23.3 574.2,-30.24"/>
</g>
<!-- :core:database&#45;&gt;:core:common -->
<g id="edge20" class="edge">
<title>:core:database&#45;&gt;:core:common</title>
<path fill="none" stroke="black" d="M191.96,-72.05C185.12,-63.8 176.75,-53.7 169.16,-44.54"/>
<polygon fill="black" stroke="black" points="171.95,-42.42 162.88,-36.95 166.56,-46.89 171.95,-42.42"/>
</g>
<!-- :core:datastore&#45;&gt;:core:model -->
<g id="edge22" class="edge">
<title>:core:datastore&#45;&gt;:core:model</title>
<path fill="none" stroke="black" d="M400.54,-77.28C450.99,-64.85 530.58,-45.23 583.28,-32.24"/>
<polygon fill="black" stroke="black" points="584.08,-35.65 592.95,-29.86 582.4,-28.85 584.08,-35.65"/>
</g>
<!-- :core:datastore&#45;&gt;:core:common -->
<g id="edge23" class="edge">
<title>:core:datastore&#45;&gt;:core:common</title>
<path fill="none" stroke="black" d="M313.47,-75.5C280.58,-64.27 233.55,-48.21 198.03,-36.08"/>
<polygon fill="black" stroke="black" points="199.43,-32.86 188.84,-32.94 197.17,-39.49 199.43,-32.86"/>
</g>
<!-- :core:datastore&#45;proto -->
<g id="node13" class="node">
<title>:core:datastore&#45;proto</title>
<ellipse fill="none" stroke="black" cx="353" cy="-18" rx="88.49" ry="18"/>
<text text-anchor="middle" x="353" y="-12.57" font-family="Times New Roman,serif" font-size="14.00">:core:datastore&#45;proto</text>
</g>
<!-- :core:datastore&#45;&gt;:core:datastore&#45;proto -->
<g id="edge21" class="edge">
<title>:core:datastore&#45;&gt;:core:datastore&#45;proto</title>
<path fill="none" stroke="black" d="M353,-71.7C353,-64.41 353,-55.73 353,-47.54"/>
<polygon fill="black" stroke="black" points="356.5,-47.62 353,-37.62 349.5,-47.62 356.5,-47.62"/>
</g>
<!-- :core:notifications&#45;&gt;:core:model -->
<g id="edge24" class="edge">
<title>:core:notifications&#45;&gt;:core:model</title>
<path fill="none" stroke="black" d="M541.45,-72.94C558.94,-63.06 581.54,-50.31 600.37,-39.68"/>
<polygon fill="black" stroke="black" points="602.08,-42.73 609.06,-34.77 598.63,-36.64 602.08,-42.73"/>
</g>
<!-- :core:notifications&#45;&gt;:core:common -->
<g id="edge25" class="edge">
<title>:core:notifications&#45;&gt;:core:common</title>
<path fill="none" stroke="black" d="M456.11,-77.69C446.4,-75.78 436.41,-73.82 427,-72 353.08,-57.67 268.05,-41.58 211.49,-30.92"/>
<polygon fill="black" stroke="black" points="212.18,-27.49 201.7,-29.08 210.88,-34.37 212.18,-27.49"/>
</g>
</g>
</svg>
