<?xml version="1.0" encoding="UTF-8" standalone="no"?>
<!DOCTYPE svg PUBLIC "-//W3C//DTD SVG 1.1//EN"
 "http://www.w3.org/Graphics/SVG/1.1/DTD/svg11.dtd">
<!-- Generated by graphviz version 11.0.0 (20240428.1522)
 -->
<!-- Title: G Pages: 1 -->
<svg width="1209pt" height="476pt" viewBox="0.00 0.00 1209.00 476.00" xmlns="http://www.w3.org/2000/svg">
<g id="graph0" class="graph" transform="scale(1 1) rotate(0) translate(4 472)">
<title>G</title>
<polygon fill="white" stroke="none" points="-4,4 -4,-472 1205,-472 1205,4 -4,4"/>
<!-- :feature:cart_selected -->
<g id="node1" class="node">
<title>:feature:cart_selected</title>
<ellipse fill="none" stroke="black" cx="669" cy="-450" rx="88.49" ry="18"/>
<text text-anchor="middle" x="669" y="-444.57" font-family="Times New Roman,serif" font-size="14.00">:feature:cart_selected</text>
</g>
<!-- :core:model -->
<g id="node2" class="node">
<title>:core:model</title>
<ellipse fill="none" stroke="black" cx="152" cy="-18" rx="54.06" ry="18"/>
<text text-anchor="middle" x="152" y="-12.57" font-family="Times New Roman,serif" font-size="14.00">:core:model</text>
</g>
<!-- :feature:cart_selected&#45;&gt;:core:model -->
<g id="edge1" class="edge">
<title>:feature:cart_selected&#45;&gt;:core:model</title>
<path fill="none" stroke="black" d="M580.51,-448.52C398.69,-445.13 0,-424.32 0,-307 0,-307 0,-307 0,-161 0,-101.2 63.6,-59.34 108.52,-37.24"/>
<polygon fill="black" stroke="black" points="109.74,-40.54 117.28,-33.09 106.74,-34.22 109.74,-40.54"/>
</g>
<!-- :core:ui -->
<g id="node3" class="node">
<title>:core:ui</title>
<ellipse fill="none" stroke="black" cx="874" cy="-234" rx="37.59" ry="18"/>
<text text-anchor="middle" x="874" y="-228.57" font-family="Times New Roman,serif" font-size="14.00">:core:ui</text>
</g>
<!-- :feature:cart_selected&#45;&gt;:core:ui -->
<g id="edge2" class="edge">
<title>:feature:cart_selected&#45;&gt;:core:ui</title>
<path fill="none" stroke="black" d="M738.76,-438.61C787.68,-429.79 847.07,-415.45 863,-396 893.62,-358.61 887.97,-298.51 881.03,-263.28"/>
<polygon fill="black" stroke="black" points="884.52,-262.87 878.99,-253.83 877.68,-264.35 884.52,-262.87"/>
</g>
<!-- :core:designsystem -->
<g id="node4" class="node">
<title>:core:designsystem</title>
<ellipse fill="none" stroke="black" cx="993" cy="-162" rx="81" ry="18"/>
<text text-anchor="middle" x="993" y="-156.57" font-family="Times New Roman,serif" font-size="14.00">:core:designsystem</text>
</g>
<!-- :feature:cart_selected&#45;&gt;:core:designsystem -->
<g id="edge3" class="edge">
<title>:feature:cart_selected&#45;&gt;:core:designsystem</title>
<path fill="none" stroke="black" d="M752.11,-443.42C795.09,-437.07 846.45,-423.75 885,-396 946.44,-351.77 948.19,-322.42 976,-252 983.65,-232.62 987.94,-209.48 990.29,-191.64"/>
<polygon fill="black" stroke="black" points="993.76,-192.1 991.45,-181.76 986.81,-191.29 993.76,-192.1"/>
</g>
<!-- :core:data -->
<g id="node5" class="node">
<title>:core:data</title>
<ellipse fill="none" stroke="black" cx="537" cy="-162" rx="46.57" ry="18"/>
<text text-anchor="middle" x="537" y="-156.57" font-family="Times New Roman,serif" font-size="14.00">:core:data</text>
</g>
<!-- :feature:cart_selected&#45;&gt;:core:data -->
<g id="edge4" class="edge">
<title>:feature:cart_selected&#45;&gt;:core:data</title>
<path fill="none" stroke="black" d="M609,-436.39C582.84,-428.41 553.34,-415.74 532,-396 479.91,-347.81 478.72,-321.2 463,-252 459.45,-236.4 455.69,-230.23 463,-216 470.44,-201.52 483.87,-190.12 497.27,-181.65"/>
<polygon fill="black" stroke="black" points="498.76,-184.84 505.63,-176.77 495.23,-178.79 498.76,-184.84"/>
</g>
<!-- :core:common -->
<g id="node6" class="node">
<title>:core:common</title>
<ellipse fill="none" stroke="black" cx="751" cy="-18" rx="64.04" ry="18"/>
<text text-anchor="middle" x="751" y="-12.57" font-family="Times New Roman,serif" font-size="14.00">:core:common</text>
</g>
<!-- :feature:cart_selected&#45;&gt;:core:common -->
<g id="edge5" class="edge">
<title>:feature:cart_selected&#45;&gt;:core:common</title>
<path fill="none" stroke="black" d="M670.97,-431.55C673.09,-413.56 676.74,-384.74 681,-360 700.44,-247.21 711.48,-220.21 734,-108 738.05,-87.82 742.4,-65.03 745.68,-47.56"/>
<polygon fill="black" stroke="black" points="749.09,-48.37 747.49,-37.9 742.21,-47.09 749.09,-48.37"/>
</g>
<!-- :core:domain -->
<g id="node7" class="node">
<title>:core:domain</title>
<ellipse fill="none" stroke="black" cx="531" cy="-234" rx="58.55" ry="18"/>
<text text-anchor="middle" x="531" y="-228.57" font-family="Times New Roman,serif" font-size="14.00">:core:domain</text>
</g>
<!-- :feature:cart_selected&#45;&gt;:core:domain -->
<g id="edge6" class="edge">
<title>:feature:cart_selected&#45;&gt;:core:domain</title>
<path fill="none" stroke="black" d="M611.88,-435.96C589.83,-428.04 566.47,-415.53 552,-396 523.26,-357.2 523.58,-298.24 526.94,-263.47"/>
<polygon fill="black" stroke="black" points="530.39,-264.09 528.04,-253.75 523.43,-263.3 530.39,-264.09"/>
</g>
<!-- :core:analytics -->
<g id="node8" class="node">
<title>:core:analytics</title>
<ellipse fill="none" stroke="black" cx="937" cy="-90" rx="63.04" ry="18"/>
<text text-anchor="middle" x="937" y="-84.58" font-family="Times New Roman,serif" font-size="14.00">:core:analytics</text>
</g>
<!-- :feature:cart_selected&#45;&gt;:core:analytics -->
<g id="edge7" class="edge">
<title>:feature:cart_selected&#45;&gt;:core:analytics</title>
<path fill="none" stroke="black" d="M753,-443.95C902.92,-432.63 1201,-398.59 1201,-307 1201,-307 1201,-307 1201,-233 1201,-144.83 1085.38,-111.17 1007.17,-98.49"/>
<polygon fill="black" stroke="black" points="1007.83,-95.05 997.41,-96.99 1006.77,-101.97 1007.83,-95.05"/>
</g>
<!-- :feature:print_order -->
<g id="node9" class="node">
<title>:feature:print_order</title>
<ellipse fill="none" stroke="black" cx="772" cy="-378" rx="81.5" ry="18"/>
<text text-anchor="middle" x="772" y="-372.57" font-family="Times New Roman,serif" font-size="14.00">:feature:print_order</text>
</g>
<!-- :feature:cart_selected&#45;&gt;:feature:print_order -->
<g id="edge8" class="edge">
<title>:feature:cart_selected&#45;&gt;:feature:print_order</title>
<path fill="none" stroke="red" stroke-width="2" d="M693.67,-432.23C707.05,-423.14 723.78,-411.77 738.33,-401.88"/>
<polygon fill="red" stroke="red" stroke-width="2" points="738.72,-405.85 745.03,-397.33 734.79,-400.06 738.72,-405.85"/>
</g>
<!-- :core:ui&#45;&gt;:core:model -->
<g id="edge11" class="edge">
<title>:core:ui&#45;&gt;:core:model</title>
<path fill="none" stroke="black" d="M844.89,-222.11C794.33,-203.57 686.71,-165.79 593,-144 488.8,-119.77 451.13,-154.94 355,-108 334.09,-97.79 337.02,-83.85 317,-72 283.51,-52.17 241.72,-38.84 208.59,-30.52"/>
<polygon fill="black" stroke="black" points="209.72,-27.19 199.18,-28.24 208.07,-33.99 209.72,-27.19"/>
</g>
<!-- :core:ui&#45;&gt;:core:designsystem -->
<g id="edge10" class="edge">
<title>:core:ui&#45;&gt;:core:designsystem</title>
<path fill="none" stroke="black" d="M896.94,-219.5C913.62,-209.69 936.56,-196.2 955.84,-184.86"/>
<polygon fill="black" stroke="black" points="957.38,-188.01 964.23,-179.93 953.83,-181.98 957.38,-188.01"/>
</g>
<!-- :core:ui&#45;&gt;:core:common -->
<g id="edge12" class="edge">
<title>:core:ui&#45;&gt;:core:common</title>
<path fill="none" stroke="black" d="M871.96,-215.96C867.52,-184.79 854.64,-117.63 822,-72 813.24,-59.76 800.81,-49.13 788.79,-40.68"/>
<polygon fill="black" stroke="black" points="790.84,-37.84 780.57,-35.21 786.96,-43.66 790.84,-37.84"/>
</g>
<!-- :core:ui&#45;&gt;:core:analytics -->
<g id="edge9" class="edge">
<title>:core:ui&#45;&gt;:core:analytics</title>
<path fill="none" stroke="black" d="M878.21,-215.77C883,-197.47 891.65,-167.94 903,-144 907.26,-135.01 912.79,-125.72 918.15,-117.47"/>
<polygon fill="black" stroke="black" points="920.98,-119.53 923.65,-109.27 915.17,-115.62 920.98,-119.53"/>
</g>
<!-- :core:data&#45;&gt;:core:model -->
<g id="edge16" class="edge">
<title>:core:data&#45;&gt;:core:model</title>
<path fill="none" stroke="black" d="M491.67,-157.32C398.9,-149.39 194.12,-129.63 171,-108 154.76,-92.8 150.63,-67.41 150.21,-47.62"/>
<polygon fill="black" stroke="black" points="153.71,-47.73 150.33,-37.68 146.71,-47.64 153.71,-47.73"/>
</g>
<!-- :core:data&#45;&gt;:core:common -->
<g id="edge13" class="edge">
<title>:core:data&#45;&gt;:core:common</title>
<path fill="none" stroke="black" d="M575.8,-151.69C604.93,-143.44 644.82,-129.33 675,-108 698.99,-91.04 720.12,-64.85 733.97,-45.27"/>
<polygon fill="black" stroke="black" points="736.72,-47.46 739.49,-37.23 730.95,-43.49 736.72,-47.46"/>
</g>
<!-- :core:data&#45;&gt;:core:analytics -->
<g id="edge17" class="edge">
<title>:core:data&#45;&gt;:core:analytics</title>
<path fill="none" stroke="black" d="M578.68,-153.71C648.72,-141.45 790.47,-116.64 873.14,-102.18"/>
<polygon fill="black" stroke="black" points="873.66,-105.64 882.91,-100.47 872.46,-98.74 873.66,-105.64"/>
</g>
<!-- :core:database -->
<g id="node10" class="node">
<title>:core:database</title>
<ellipse fill="none" stroke="black" cx="244" cy="-90" rx="63.54" ry="18"/>
<text text-anchor="middle" x="244" y="-84.58" font-family="Times New Roman,serif" font-size="14.00">:core:database</text>
</g>
<!-- :core:data&#45;&gt;:core:database -->
<g id="edge14" class="edge">
<title>:core:data&#45;&gt;:core:database</title>
<path fill="none" stroke="red" stroke-width="2" d="M498.09,-151.7C448,-139.74 360.52,-118.84 302.42,-104.96"/>
<polygon fill="red" stroke="red" stroke-width="2" points="305.06,-101.99 294.52,-103.07 303.43,-108.8 305.06,-101.99"/>
</g>
<!-- :core:datastore -->
<g id="node11" class="node">
<title>:core:datastore</title>
<ellipse fill="none" stroke="black" cx="601" cy="-90" rx="65.04" ry="18"/>
<text text-anchor="middle" x="601" y="-84.58" font-family="Times New Roman,serif" font-size="14.00">:core:datastore</text>
</g>
<!-- :core:data&#45;&gt;:core:datastore -->
<g id="edge15" class="edge">
<title>:core:data&#45;&gt;:core:datastore</title>
<path fill="none" stroke="black" d="M551.84,-144.76C559.65,-136.23 569.38,-125.58 578.13,-116.02"/>
<polygon fill="black" stroke="black" points="580.61,-118.49 584.77,-108.75 575.44,-113.77 580.61,-118.49"/>
</g>
<!-- :core:notifications -->
<g id="node12" class="node">
<title>:core:notifications</title>
<ellipse fill="none" stroke="black" cx="441" cy="-90" rx="76.51" ry="18"/>
<text text-anchor="middle" x="441" y="-84.58" font-family="Times New Roman,serif" font-size="14.00">:core:notifications</text>
</g>
<!-- :core:data&#45;&gt;:core:notifications -->
<g id="edge18" class="edge">
<title>:core:data&#45;&gt;:core:notifications</title>
<path fill="none" stroke="black" d="M516.17,-145.81C503.5,-136.58 487.07,-124.6 472.81,-114.19"/>
<polygon fill="black" stroke="black" points="475.17,-111.58 465.03,-108.52 471.04,-117.24 475.17,-111.58"/>
</g>
<!-- :core:domain&#45;&gt;:core:model -->
<g id="edge27" class="edge">
<title>:core:domain&#45;&gt;:core:model</title>
<path fill="none" stroke="black" d="M478.09,-226.06C372.62,-210.97 142.62,-171.35 100,-108 85.47,-86.4 104.24,-60.61 123.16,-42.37"/>
<polygon fill="black" stroke="black" points="125.31,-45.14 130.35,-35.82 120.6,-39.97 125.31,-45.14"/>
</g>
<!-- :core:domain&#45;&gt;:core:data -->
<g id="edge26" class="edge">
<title>:core:domain&#45;&gt;:core:data</title>
<path fill="none" stroke="red" stroke-width="2" d="M532.48,-215.7C533.11,-208.41 533.85,-199.73 534.55,-191.54"/>
<polygon fill="red" stroke="red" stroke-width="2" points="537.91,-193.38 535.28,-183.12 530.93,-192.78 537.91,-193.38"/>
</g>
<!-- :core:domain&#45;&gt;:core:common -->
<g id="edge28" class="edge">
<title>:core:domain&#45;&gt;:core:common</title>
<path fill="none" stroke="black" d="M560.82,-218.11C599.12,-197.74 665.68,-157.94 708,-108 723.25,-90 734.52,-65.67 741.69,-47"/>
<polygon fill="black" stroke="black" points="744.97,-48.22 745.1,-37.63 738.39,-45.83 744.97,-48.22"/>
</g>
<!-- :feature:print_order&#45;&gt;:core:model -->
<g id="edge30" class="edge">
<title>:feature:print_order&#45;&gt;:core:model</title>
<path fill="none" stroke="black" d="M700.11,-369.18C576.24,-352.69 319.06,-305 144,-180 100.49,-148.93 68.82,-120.65 91,-72 96.58,-59.76 106.54,-49.25 116.82,-40.89"/>
<polygon fill="black" stroke="black" points="118.73,-43.84 124.62,-35.03 114.52,-38.24 118.73,-43.84"/>
</g>
<!-- :feature:print_order&#45;&gt;:core:ui -->
<g id="edge31" class="edge">
<title>:feature:print_order&#45;&gt;:core:ui</title>
<path fill="none" stroke="black" d="M802.56,-360.89C817.21,-351.79 833.94,-339.2 845,-324 858.08,-306.02 865.46,-281.84 869.5,-263.22"/>
<polygon fill="black" stroke="black" points="872.89,-264.15 871.36,-253.66 866.01,-262.81 872.89,-264.15"/>
</g>
<!-- :feature:print_order&#45;&gt;:core:designsystem -->
<g id="edge32" class="edge">
<title>:feature:print_order&#45;&gt;:core:designsystem</title>
<path fill="none" stroke="black" d="M806.4,-361.42C846.72,-341.5 912.98,-303.34 952,-252 966.07,-233.49 976.8,-209.39 983.75,-190.93"/>
<polygon fill="black" stroke="black" points="986.98,-192.29 987.07,-181.69 980.39,-189.92 986.98,-192.29"/>
</g>
<!-- :feature:print_order&#45;&gt;:core:data -->
<g id="edge33" class="edge">
<title>:feature:print_order&#45;&gt;:core:data</title>
<path fill="none" stroke="black" d="M746.74,-360.48C732.24,-350.56 713.99,-337.31 699,-324 650.08,-280.58 646.16,-261.33 599,-216 588.31,-205.73 576,-194.99 565.17,-185.89"/>
<polygon fill="black" stroke="black" points="567.59,-183.35 557.66,-179.65 563.11,-188.73 567.59,-183.35"/>
</g>
<!-- :feature:print_order&#45;&gt;:core:common -->
<g id="edge34" class="edge">
<title>:feature:print_order&#45;&gt;:core:common</title>
<path fill="none" stroke="black" d="M834.95,-366.24C874.04,-358.02 924.55,-344.54 966,-324 1055.36,-279.71 1143.45,-233.77 1100,-144 1077.53,-97.58 1055.75,-93.78 1009,-72 950.11,-44.56 877.12,-31.26 823.82,-24.85"/>
<polygon fill="black" stroke="black" points="824.26,-21.37 813.92,-23.72 823.46,-28.33 824.26,-21.37"/>
</g>
<!-- :feature:print_order&#45;&gt;:core:domain -->
<g id="edge35" class="edge">
<title>:feature:print_order&#45;&gt;:core:domain</title>
<path fill="none" stroke="black" d="M736.78,-361.34C715.73,-351.51 688.75,-338.06 666,-324 643.32,-309.98 640.08,-302.95 618,-288 601.78,-277.02 583.32,-265.62 567.58,-256.22"/>
<polygon fill="black" stroke="black" points="569.38,-253.21 558.99,-251.13 565.81,-259.24 569.38,-253.21"/>
</g>
<!-- :feature:print_order&#45;&gt;:core:analytics -->
<g id="edge36" class="edge">
<title>:feature:print_order&#45;&gt;:core:analytics</title>
<path fill="none" stroke="black" d="M822.52,-363.52C897.18,-340.42 1033.48,-285.26 1083,-180 1089.81,-165.52 1092.18,-157.1 1083,-144 1065.72,-119.34 1035.73,-106.11 1007.41,-99.03"/>
<polygon fill="black" stroke="black" points="1008.25,-95.63 997.73,-96.85 1006.72,-102.46 1008.25,-95.63"/>
</g>
<!-- :feature:printer -->
<g id="node14" class="node">
<title>:feature:printer</title>
<ellipse fill="none" stroke="black" cx="772" cy="-306" rx="63.54" ry="18"/>
<text text-anchor="middle" x="772" y="-300.57" font-family="Times New Roman,serif" font-size="14.00">:feature:printer</text>
</g>
<!-- :feature:print_order&#45;&gt;:feature:printer -->
<g id="edge29" class="edge">
<title>:feature:print_order&#45;&gt;:feature:printer</title>
<path fill="none" stroke="red" stroke-width="2" d="M772,-359.7C772,-352.41 772,-343.73 772,-335.54"/>
<polygon fill="red" stroke="red" stroke-width="2" points="775.5,-337.13 772,-327.13 768.5,-337.13 775.5,-337.13"/>
</g>
<!-- :core:database&#45;&gt;:core:model -->
<g id="edge19" class="edge">
<title>:core:database&#45;&gt;:core:model</title>
<path fill="none" stroke="red" stroke-width="2" d="M222.66,-72.76C210.5,-63.51 195.07,-51.77 181.74,-41.63"/>
<polygon fill="red" stroke="red" stroke-width="2" points="185.39,-40.01 175.31,-36.74 181.15,-45.58 185.39,-40.01"/>
</g>
<!-- :core:database&#45;&gt;:core:common -->
<g id="edge20" class="edge">
<title>:core:database&#45;&gt;:core:common</title>
<path fill="none" stroke="black" d="M298.14,-80.26C316.2,-77.46 336.45,-74.46 355,-72 497.76,-53.1 535.04,-60.16 677,-36 682.25,-35.11 687.68,-34.07 693.11,-32.96"/>
<polygon fill="black" stroke="black" points="693.65,-36.43 702.71,-30.92 692.2,-29.58 693.65,-36.43"/>
</g>
<!-- :core:datastore&#45;&gt;:core:model -->
<g id="edge22" class="edge">
<title>:core:datastore&#45;&gt;:core:model</title>
<path fill="none" stroke="black" d="M553.36,-77.43C544.62,-75.48 535.55,-73.58 527,-72 417.23,-51.67 288.12,-35 213.6,-26.07"/>
<polygon fill="black" stroke="black" points="214.41,-22.64 204.07,-24.93 213.59,-29.59 214.41,-22.64"/>
</g>
<!-- :core:datastore&#45;&gt;:core:common -->
<g id="edge23" class="edge">
<title>:core:datastore&#45;&gt;:core:common</title>
<path fill="none" stroke="black" d="M633.18,-73.98C655.22,-63.7 684.69,-49.94 708.65,-38.77"/>
<polygon fill="black" stroke="black" points="709.92,-42.03 717.5,-34.63 706.96,-35.69 709.92,-42.03"/>
</g>
<!-- :core:datastore&#45;proto -->
<g id="node13" class="node">
<title>:core:datastore&#45;proto</title>
<ellipse fill="none" stroke="black" cx="580" cy="-18" rx="88.49" ry="18"/>
<text text-anchor="middle" x="580" y="-12.57" font-family="Times New Roman,serif" font-size="14.00">:core:datastore&#45;proto</text>
</g>
<!-- :core:datastore&#45;&gt;:core:datastore&#45;proto -->
<g id="edge21" class="edge">
<title>:core:datastore&#45;&gt;:core:datastore&#45;proto</title>
<path fill="none" stroke="black" d="M595.81,-71.7C593.57,-64.24 590.9,-55.32 588.39,-46.97"/>
<polygon fill="black" stroke="black" points="591.79,-46.13 585.57,-37.55 585.09,-48.14 591.79,-46.13"/>
</g>
<!-- :core:notifications&#45;&gt;:core:model -->
<g id="edge24" class="edge">
<title>:core:notifications&#45;&gt;:core:model</title>
<path fill="none" stroke="black" d="M389,-76.4C337.22,-63.86 258.1,-44.7 205.73,-32.01"/>
<polygon fill="black" stroke="black" points="206.67,-28.64 196.12,-29.69 205.02,-35.44 206.67,-28.64"/>
</g>
<!-- :core:notifications&#45;&gt;:core:common -->
<g id="edge25" class="edge">
<title>:core:notifications&#45;&gt;:core:common</title>
<path fill="none" stroke="black" d="M494.91,-76.97C542.76,-66.28 614.55,-50.19 677,-36 681.83,-34.9 686.84,-33.76 691.86,-32.61"/>
<polygon fill="black" stroke="black" points="692.4,-36.08 701.37,-30.44 690.84,-29.26 692.4,-36.08"/>
</g>
<!-- :feature:printer&#45;&gt;:core:model -->
<g id="edge37" class="edge">
<title>:feature:printer&#45;&gt;:core:model</title>
<path fill="none" stroke="black" d="M746.22,-289.25C713.18,-269.64 653.62,-236.28 599,-216 550.9,-198.14 181.76,-148.3 150,-108 136.69,-91.11 138.44,-66.29 142.81,-47.15"/>
<polygon fill="black" stroke="black" points="146.17,-48.12 145.37,-37.55 139.41,-46.31 146.17,-48.12"/>
</g>
<!-- :feature:printer&#45;&gt;:core:ui -->
<g id="edge38" class="edge">
<title>:feature:printer&#45;&gt;:core:ui</title>
<path fill="none" stroke="black" d="M795.4,-288.94C809.82,-279.05 828.45,-266.26 843.95,-255.62"/>
<polygon fill="black" stroke="black" points="845.62,-258.72 851.88,-250.18 841.66,-252.95 845.62,-258.72"/>
</g>
<!-- :feature:printer&#45;&gt;:core:designsystem -->
<g id="edge39" class="edge">
<title>:feature:printer&#45;&gt;:core:designsystem</title>
<path fill="none" stroke="black" d="M821.84,-294.58C852.44,-286.48 891.31,-273.02 921,-252 944.34,-235.47 964.19,-209.4 977.1,-189.74"/>
<polygon fill="black" stroke="black" points="979.99,-191.72 982.39,-181.4 974.08,-187.97 979.99,-191.72"/>
</g>
<!-- :feature:printer&#45;&gt;:core:data -->
<g id="edge40" class="edge">
<title>:feature:printer&#45;&gt;:core:data</title>
<path fill="none" stroke="black" d="M763.89,-287.66C753.63,-267.56 734.1,-234.79 708,-216 673.74,-191.34 627.71,-177.93 592.04,-170.77"/>
<polygon fill="black" stroke="black" points="592.81,-167.35 582.33,-168.94 591.51,-174.23 592.81,-167.35"/>
</g>
<!-- :feature:printer&#45;&gt;:core:common -->
<g id="edge41" class="edge">
<title>:feature:printer&#45;&gt;:core:common</title>
<path fill="none" stroke="black" d="M776.67,-287.61C786.42,-248.29 806.27,-149.89 784,-72 781.33,-62.66 776.49,-53.37 771.32,-45.24"/>
<polygon fill="black" stroke="black" points="774.37,-43.49 765.84,-37.21 768.59,-47.44 774.37,-43.49"/>
</g>
<!-- :feature:printer&#45;&gt;:core:domain -->
<g id="edge42" class="edge">
<title>:feature:printer&#45;&gt;:core:domain</title>
<path fill="none" stroke="red" stroke-width="2" d="M728.64,-292.4C687.87,-280.56 626.78,-262.82 583.33,-250.2"/>
<polygon fill="red" stroke="red" stroke-width="2" points="585.89,-247.3 575.31,-247.87 583.94,-254.02 585.89,-247.3"/>
</g>
<!-- :feature:printer&#45;&gt;:core:analytics -->
<g id="edge43" class="edge">
<title>:feature:printer&#45;&gt;:core:analytics</title>
<path fill="none" stroke="black" d="M781.77,-287.89C792.35,-269.69 810,-240.24 827,-216 850.43,-182.58 856.86,-174.48 884,-144 892.53,-134.43 902.34,-124.37 911.18,-115.62"/>
<polygon fill="black" stroke="black" points="913.51,-118.25 918.21,-108.76 908.62,-113.24 913.51,-118.25"/>
</g>
</g>
</svg>
