<?xml version="1.0" encoding="UTF-8" standalone="no"?>
<!DOCTYPE svg PUBLIC "-//W3C//DTD SVG 1.1//EN"
 "http://www.w3.org/Graphics/SVG/1.1/DTD/svg11.dtd">
<!-- Generated by graphviz version 11.0.0 (20240428.1522)
 -->
<!-- Title: G Pages: 1 -->
<svg width="960pt" height="404pt" viewBox="0.00 0.00 960.00 404.00" xmlns="http://www.w3.org/2000/svg">
<g id="graph0" class="graph" transform="scale(1 1) rotate(0) translate(4 400)">
<title>G</title>
<polygon fill="white" stroke="none" points="-4,4 -4,-400 956,-400 956,4 -4,4"/>
<!-- :feature:printer_info -->
<g id="node1" class="node">
<title>:feature:printer_info</title>
<ellipse fill="none" stroke="black" cx="372" cy="-378" rx="83" ry="18"/>
<text text-anchor="middle" x="372" y="-372.57" font-family="Times New Roman,serif" font-size="14.00">:feature:printer_info</text>
</g>
<!-- :feature:printer -->
<g id="node2" class="node">
<title>:feature:printer</title>
<ellipse fill="none" stroke="black" cx="415" cy="-306" rx="63.54" ry="18"/>
<text text-anchor="middle" x="415" y="-300.57" font-family="Times New Roman,serif" font-size="14.00">:feature:printer</text>
</g>
<!-- :feature:printer_info&#45;&gt;:feature:printer -->
<g id="edge1" class="edge">
<title>:feature:printer_info&#45;&gt;:feature:printer</title>
<path fill="none" stroke="red" stroke-width="2" d="M382.63,-359.7C387.42,-351.9 393.19,-342.51 398.52,-333.83"/>
<polygon fill="red" stroke="red" stroke-width="2" points="400.66,-337.04 402.91,-326.68 394.69,-333.37 400.66,-337.04"/>
</g>
<!-- :core:model -->
<g id="node3" class="node">
<title>:core:model</title>
<ellipse fill="none" stroke="black" cx="786" cy="-18" rx="54.06" ry="18"/>
<text text-anchor="middle" x="786" y="-12.57" font-family="Times New Roman,serif" font-size="14.00">:core:model</text>
</g>
<!-- :feature:printer_info&#45;&gt;:core:model -->
<g id="edge2" class="edge">
<title>:feature:printer_info&#45;&gt;:core:model</title>
<path fill="none" stroke="black" d="M453.26,-373.97C612.88,-365.79 952,-336.47 952,-235 952,-235 952,-235 952,-161 952,-97.93 881.95,-56.88 832.86,-35.86"/>
<polygon fill="black" stroke="black" points="834.41,-32.71 823.83,-32.13 831.74,-39.18 834.41,-32.71"/>
</g>
<!-- :core:ui -->
<g id="node4" class="node">
<title>:core:ui</title>
<ellipse fill="none" stroke="black" cx="223" cy="-234" rx="37.59" ry="18"/>
<text text-anchor="middle" x="223" y="-228.57" font-family="Times New Roman,serif" font-size="14.00">:core:ui</text>
</g>
<!-- :feature:printer_info&#45;&gt;:core:ui -->
<g id="edge3" class="edge">
<title>:feature:printer_info&#45;&gt;:core:ui</title>
<path fill="none" stroke="black" d="M348.54,-360.27C335.05,-350.27 318.05,-337.02 304,-324 282.1,-303.71 259.42,-278.35 243.65,-259.9"/>
<polygon fill="black" stroke="black" points="246.39,-257.72 237.26,-252.35 241.05,-262.24 246.39,-257.72"/>
</g>
<!-- :core:designsystem -->
<g id="node5" class="node">
<title>:core:designsystem</title>
<ellipse fill="none" stroke="black" cx="314" cy="-162" rx="81" ry="18"/>
<text text-anchor="middle" x="314" y="-156.57" font-family="Times New Roman,serif" font-size="14.00">:core:designsystem</text>
</g>
<!-- :feature:printer_info&#45;&gt;:core:designsystem -->
<g id="edge4" class="edge">
<title>:feature:printer_info&#45;&gt;:core:designsystem</title>
<path fill="none" stroke="black" d="M360.42,-360.06C354.06,-349.99 346.56,-336.74 342,-324 326.07,-279.47 319.01,-224.66 316.03,-191.85"/>
<polygon fill="black" stroke="black" points="319.52,-191.6 315.2,-181.92 312.54,-192.18 319.52,-191.6"/>
</g>
<!-- :core:data -->
<g id="node6" class="node">
<title>:core:data</title>
<ellipse fill="none" stroke="black" cx="548" cy="-162" rx="46.57" ry="18"/>
<text text-anchor="middle" x="548" y="-156.57" font-family="Times New Roman,serif" font-size="14.00">:core:data</text>
</g>
<!-- :feature:printer_info&#45;&gt;:core:data -->
<g id="edge5" class="edge">
<title>:feature:printer_info&#45;&gt;:core:data</title>
<path fill="none" stroke="black" d="M435.19,-365.94C495.31,-351.53 581.55,-319.65 616,-252 623.26,-237.74 623.02,-230.38 616,-216 609.42,-202.52 597.57,-191.48 585.58,-183.02"/>
<polygon fill="black" stroke="black" points="587.6,-180.16 577.31,-177.63 583.78,-186.02 587.6,-180.16"/>
</g>
<!-- :core:common -->
<g id="node7" class="node">
<title>:core:common</title>
<ellipse fill="none" stroke="black" cx="296" cy="-18" rx="64.04" ry="18"/>
<text text-anchor="middle" x="296" y="-12.57" font-family="Times New Roman,serif" font-size="14.00">:core:common</text>
</g>
<!-- :feature:printer_info&#45;&gt;:core:common -->
<g id="edge6" class="edge">
<title>:feature:printer_info&#45;&gt;:core:common</title>
<path fill="none" stroke="black" d="M308.05,-366.18C201.69,-346.35 0,-300.15 0,-235 0,-235 0,-235 0,-161 0,-62.71 134.31,-32.41 221.98,-23.1"/>
<polygon fill="black" stroke="black" points="222.11,-26.6 231.72,-22.14 221.42,-19.63 222.11,-26.6"/>
</g>
<!-- :core:domain -->
<g id="node8" class="node">
<title>:core:domain</title>
<ellipse fill="none" stroke="black" cx="548" cy="-234" rx="58.55" ry="18"/>
<text text-anchor="middle" x="548" y="-228.57" font-family="Times New Roman,serif" font-size="14.00">:core:domain</text>
</g>
<!-- :feature:printer_info&#45;&gt;:core:domain -->
<g id="edge7" class="edge">
<title>:feature:printer_info&#45;&gt;:core:domain</title>
<path fill="none" stroke="black" d="M417.99,-362.67C440.75,-354 467.65,-341.25 488,-324 508.15,-306.92 524.38,-281.47 534.86,-262.15"/>
<polygon fill="black" stroke="black" points="537.85,-263.97 539.37,-253.49 531.65,-260.74 537.85,-263.97"/>
</g>
<!-- :core:analytics -->
<g id="node9" class="node">
<title>:core:analytics</title>
<ellipse fill="none" stroke="black" cx="167" cy="-90" rx="63.04" ry="18"/>
<text text-anchor="middle" x="167" y="-84.58" font-family="Times New Roman,serif" font-size="14.00">:core:analytics</text>
</g>
<!-- :feature:printer_info&#45;&gt;:core:analytics -->
<g id="edge8" class="edge">
<title>:feature:printer_info&#45;&gt;:core:analytics</title>
<path fill="none" stroke="black" d="M325.5,-362.84C277.68,-345.43 206.07,-310.74 176,-252 154.41,-209.83 157.43,-153.07 161.96,-119.42"/>
<polygon fill="black" stroke="black" points="165.4,-120.05 163.43,-109.64 158.48,-119.01 165.4,-120.05"/>
</g>
<!-- :feature:printer&#45;&gt;:core:model -->
<g id="edge9" class="edge">
<title>:feature:printer&#45;&gt;:core:model</title>
<path fill="none" stroke="black" d="M471.42,-297.4C549.8,-284.54 693.12,-252.43 792,-180 836.3,-147.55 875.74,-121.51 852,-72 845.84,-59.16 834.9,-48.45 823.66,-40.1"/>
<polygon fill="black" stroke="black" points="825.73,-37.27 815.51,-34.49 821.77,-43.04 825.73,-37.27"/>
</g>
<!-- :feature:printer&#45;&gt;:core:ui -->
<g id="edge10" class="edge">
<title>:feature:printer&#45;&gt;:core:ui</title>
<path fill="none" stroke="black" d="M377.07,-291.17C344.17,-279.18 296.71,-261.87 263.18,-249.65"/>
<polygon fill="black" stroke="black" points="264.4,-246.37 253.8,-246.23 262,-252.94 264.4,-246.37"/>
</g>
<!-- :feature:printer&#45;&gt;:core:designsystem -->
<g id="edge11" class="edge">
<title>:feature:printer&#45;&gt;:core:designsystem</title>
<path fill="none" stroke="black" d="M402.82,-287.87C385.38,-263.35 353.14,-218.03 332.68,-189.26"/>
<polygon fill="black" stroke="black" points="335.75,-187.54 327.1,-181.42 330.05,-191.6 335.75,-187.54"/>
</g>
<!-- :feature:printer&#45;&gt;:core:data -->
<g id="edge12" class="edge">
<title>:feature:printer&#45;&gt;:core:data</title>
<path fill="none" stroke="black" d="M425.47,-287.85C437.38,-269.09 458.03,-238.67 480,-216 490.93,-204.72 504.33,-193.78 516.33,-184.8"/>
<polygon fill="black" stroke="black" points="518.35,-187.66 524.36,-178.94 514.22,-182.01 518.35,-187.66"/>
</g>
<!-- :feature:printer&#45;&gt;:core:common -->
<g id="edge13" class="edge">
<title>:feature:printer&#45;&gt;:core:common</title>
<path fill="none" stroke="black" d="M354.01,-300.44C303.79,-294.64 232.02,-281.53 176,-252 134.55,-230.16 122.76,-220.38 99,-180 74.32,-138.06 50.99,-110.31 81,-72 98.86,-49.21 170.13,-34.89 225.78,-26.96"/>
<polygon fill="black" stroke="black" points="226.11,-30.45 235.54,-25.62 225.15,-23.52 226.11,-30.45"/>
</g>
<!-- :feature:printer&#45;&gt;:core:domain -->
<g id="edge14" class="edge">
<title>:feature:printer&#45;&gt;:core:domain</title>
<path fill="none" stroke="red" stroke-width="2" d="M444.19,-289.64C463.29,-279.59 488.46,-266.34 509.24,-255.4"/>
<polygon fill="red" stroke="red" stroke-width="2" points="509.44,-259.25 516.66,-251.5 506.18,-253.06 509.44,-259.25"/>
</g>
<!-- :feature:printer&#45;&gt;:core:analytics -->
<g id="edge15" class="edge">
<title>:feature:printer&#45;&gt;:core:analytics</title>
<path fill="none" stroke="black" d="M419.73,-288C427.59,-255.7 439.23,-185.02 404,-144 403.63,-143.57 296.72,-119.78 226.63,-104.22"/>
<polygon fill="black" stroke="black" points="227.72,-100.88 217.2,-102.13 226.2,-107.71 227.72,-100.88"/>
</g>
<!-- :core:ui&#45;&gt;:core:model -->
<g id="edge18" class="edge">
<title>:core:ui&#45;&gt;:core:model</title>
<path fill="none" stroke="black" d="M218.42,-215.91C214.36,-196.92 210.89,-166.05 224,-144 257.56,-87.57 290.49,-92.1 353,-72 487.99,-28.6 529.39,-54.28 670,-36 688.3,-33.62 708.19,-30.79 726.24,-28.14"/>
<polygon fill="black" stroke="black" points="726.64,-31.62 736.01,-26.69 725.61,-24.69 726.64,-31.62"/>
</g>
<!-- :core:ui&#45;&gt;:core:designsystem -->
<g id="edge17" class="edge">
<title>:core:ui&#45;&gt;:core:designsystem</title>
<path fill="none" stroke="black" d="M242.3,-218.15C254.17,-209.02 269.65,-197.12 283.18,-186.71"/>
<polygon fill="black" stroke="black" points="285.18,-189.58 290.97,-180.71 280.91,-184.03 285.18,-189.58"/>
</g>
<!-- :core:ui&#45;&gt;:core:common -->
<g id="edge19" class="edge">
<title>:core:ui&#45;&gt;:core:common</title>
<path fill="none" stroke="black" d="M198.53,-219.96C150.51,-192.69 52.17,-127.58 95,-72 111.29,-50.86 175.84,-36.46 227.46,-28.06"/>
<polygon fill="black" stroke="black" points="227.76,-31.56 237.09,-26.55 226.67,-24.64 227.76,-31.56"/>
</g>
<!-- :core:ui&#45;&gt;:core:analytics -->
<g id="edge16" class="edge">
<title>:core:ui&#45;&gt;:core:analytics</title>
<path fill="none" stroke="black" d="M211.36,-216.46C204.65,-206.32 196.48,-192.85 191,-180 182.64,-160.41 176.49,-137.14 172.51,-119.31"/>
<polygon fill="black" stroke="black" points="175.96,-118.74 170.46,-109.68 169.12,-120.19 175.96,-118.74"/>
</g>
<!-- :core:data&#45;&gt;:core:model -->
<g id="edge23" class="edge">
<title>:core:data&#45;&gt;:core:model</title>
<path fill="none" stroke="black" d="M594.17,-158.83C663.93,-154.46 791.04,-141.96 819,-108 834.05,-89.72 821.8,-63.91 808.16,-44.79"/>
<polygon fill="black" stroke="black" points="811.02,-42.77 802.17,-36.95 805.46,-47.02 811.02,-42.77"/>
</g>
<!-- :core:data&#45;&gt;:core:common -->
<g id="edge20" class="edge">
<title>:core:data&#45;&gt;:core:common</title>
<path fill="none" stroke="black" d="M508.68,-151.92C455.45,-139.38 365.62,-117.26 353,-108 331.78,-92.42 316.45,-66.36 307.06,-46.46"/>
<polygon fill="black" stroke="black" points="310.35,-45.22 303.08,-37.52 303.95,-48.08 310.35,-45.22"/>
</g>
<!-- :core:data&#45;&gt;:core:analytics -->
<g id="edge24" class="edge">
<title>:core:data&#45;&gt;:core:analytics</title>
<path fill="none" stroke="black" d="M506.5,-153.38C439.86,-141.13 308.56,-117.01 230.21,-102.61"/>
<polygon fill="black" stroke="black" points="231.01,-99.2 220.54,-100.84 229.74,-106.09 231.01,-99.2"/>
</g>
<!-- :core:database -->
<g id="node10" class="node">
<title>:core:database</title>
<ellipse fill="none" stroke="black" cx="426" cy="-90" rx="63.54" ry="18"/>
<text text-anchor="middle" x="426" y="-84.58" font-family="Times New Roman,serif" font-size="14.00">:core:database</text>
</g>
<!-- :core:data&#45;&gt;:core:database -->
<g id="edge21" class="edge">
<title>:core:data&#45;&gt;:core:database</title>
<path fill="none" stroke="red" stroke-width="2" d="M522.72,-146.5C505.56,-136.65 482.59,-123.47 463.33,-112.42"/>
<polygon fill="red" stroke="red" stroke-width="2" points="466.41,-110.15 455.99,-108.21 462.92,-116.22 466.41,-110.15"/>
</g>
<!-- :core:datastore -->
<g id="node11" class="node">
<title>:core:datastore</title>
<ellipse fill="none" stroke="black" cx="573" cy="-90" rx="65.04" ry="18"/>
<text text-anchor="middle" x="573" y="-84.58" font-family="Times New Roman,serif" font-size="14.00">:core:datastore</text>
</g>
<!-- :core:data&#45;&gt;:core:datastore -->
<g id="edge22" class="edge">
<title>:core:data&#45;&gt;:core:datastore</title>
<path fill="none" stroke="black" d="M554.18,-143.7C556.87,-136.15 560.1,-127.12 563.11,-118.68"/>
<polygon fill="black" stroke="black" points="566.31,-120.12 566.38,-109.53 559.72,-117.77 566.31,-120.12"/>
</g>
<!-- :core:notifications -->
<g id="node12" class="node">
<title>:core:notifications</title>
<ellipse fill="none" stroke="black" cx="733" cy="-90" rx="76.51" ry="18"/>
<text text-anchor="middle" x="733" y="-84.58" font-family="Times New Roman,serif" font-size="14.00">:core:notifications</text>
</g>
<!-- :core:data&#45;&gt;:core:notifications -->
<g id="edge25" class="edge">
<title>:core:data&#45;&gt;:core:notifications</title>
<path fill="none" stroke="black" d="M580.22,-148.81C608.59,-138.07 650.36,-122.27 683.05,-109.9"/>
<polygon fill="black" stroke="black" points="684.23,-113.2 692.34,-106.38 681.75,-106.65 684.23,-113.2"/>
</g>
<!-- :core:domain&#45;&gt;:core:model -->
<g id="edge34" class="edge">
<title>:core:domain&#45;&gt;:core:model</title>
<path fill="none" stroke="black" d="M602.58,-227.01C670.61,-216.29 784.2,-186.96 836,-108 850,-86.67 832.44,-61.19 814.39,-42.96"/>
<polygon fill="black" stroke="black" points="816.93,-40.55 807.27,-36.19 812.1,-45.62 816.93,-40.55"/>
</g>
<!-- :core:domain&#45;&gt;:core:data -->
<g id="edge33" class="edge">
<title>:core:domain&#45;&gt;:core:data</title>
<path fill="none" stroke="red" stroke-width="2" d="M548,-215.7C548,-208.41 548,-199.73 548,-191.54"/>
<polygon fill="red" stroke="red" stroke-width="2" points="551.5,-193.13 548,-183.13 544.5,-193.13 551.5,-193.13"/>
</g>
<!-- :core:domain&#45;&gt;:core:common -->
<g id="edge35" class="edge">
<title>:core:domain&#45;&gt;:core:common</title>
<path fill="none" stroke="black" d="M529.55,-216.5C506.82,-196.91 466.39,-164.34 427,-144 381.67,-120.6 352.67,-145.43 318,-108 303.02,-91.83 297.81,-67.11 296.18,-47.83"/>
<polygon fill="black" stroke="black" points="299.68,-47.68 295.65,-37.88 292.69,-48.05 299.68,-47.68"/>
</g>
<!-- :core:database&#45;&gt;:core:model -->
<g id="edge26" class="edge">
<title>:core:database&#45;&gt;:core:model</title>
<path fill="none" stroke="red" stroke-width="2" d="M473.44,-77.62C481.94,-75.67 490.72,-73.73 499,-72 577.82,-55.55 669.37,-39.1 727.48,-28.99"/>
<polygon fill="red" stroke="red" stroke-width="2" points="726.4,-32.73 735.66,-27.57 725.21,-25.83 726.4,-32.73"/>
</g>
<!-- :core:database&#45;&gt;:core:common -->
<g id="edge27" class="edge">
<title>:core:database&#45;&gt;:core:common</title>
<path fill="none" stroke="black" d="M397.47,-73.64C379.01,-63.7 354.75,-50.64 334.58,-39.78"/>
<polygon fill="black" stroke="black" points="336.26,-36.7 325.8,-35.04 332.94,-42.87 336.26,-36.7"/>
</g>
<!-- :core:datastore&#45;&gt;:core:model -->
<g id="edge29" class="edge">
<title>:core:datastore&#45;&gt;:core:model</title>
<path fill="none" stroke="black" d="M613.82,-75.59C649.22,-63.95 700.51,-47.1 737.9,-34.81"/>
<polygon fill="black" stroke="black" points="738.69,-38.23 747.1,-31.79 736.5,-31.58 738.69,-38.23"/>
</g>
<!-- :core:datastore&#45;&gt;:core:common -->
<g id="edge30" class="edge">
<title>:core:datastore&#45;&gt;:core:common</title>
<path fill="none" stroke="black" d="M526.01,-77.13C478.27,-65.06 404.27,-46.36 353.16,-33.44"/>
<polygon fill="black" stroke="black" points="354.32,-30.13 343.76,-31.07 352.6,-36.91 354.32,-30.13"/>
</g>
<!-- :core:datastore&#45;proto -->
<g id="node13" class="node">
<title>:core:datastore&#45;proto</title>
<ellipse fill="none" stroke="black" cx="573" cy="-18" rx="88.49" ry="18"/>
<text text-anchor="middle" x="573" y="-12.57" font-family="Times New Roman,serif" font-size="14.00">:core:datastore&#45;proto</text>
</g>
<!-- :core:datastore&#45;&gt;:core:datastore&#45;proto -->
<g id="edge28" class="edge">
<title>:core:datastore&#45;&gt;:core:datastore&#45;proto</title>
<path fill="none" stroke="black" d="M573,-71.7C573,-64.41 573,-55.73 573,-47.54"/>
<polygon fill="black" stroke="black" points="576.5,-47.62 573,-37.62 569.5,-47.62 576.5,-47.62"/>
</g>
<!-- :core:notifications&#45;&gt;:core:model -->
<g id="edge31" class="edge">
<title>:core:notifications&#45;&gt;:core:model</title>
<path fill="none" stroke="black" d="M745.83,-72.05C752.01,-63.89 759.57,-53.91 766.45,-44.82"/>
<polygon fill="black" stroke="black" points="769.13,-47.08 772.37,-37 763.55,-42.86 769.13,-47.08"/>
</g>
<!-- :core:notifications&#45;&gt;:core:common -->
<g id="edge32" class="edge">
<title>:core:notifications&#45;&gt;:core:common</title>
<path fill="none" stroke="black" d="M676.63,-77.48C666.77,-75.57 656.6,-73.67 647,-72 548.74,-54.88 434.43,-38.22 363.64,-28.29"/>
<polygon fill="black" stroke="black" points="364.55,-24.88 354.16,-26.96 363.58,-31.81 364.55,-24.88"/>
</g>
</g>
</svg>
