<?xml version="1.0" encoding="UTF-8" standalone="no"?>
<!DOCTYPE svg PUBLIC "-//W3C//DTD SVG 1.1//EN"
 "http://www.w3.org/Graphics/SVG/1.1/DTD/svg11.dtd">
<!-- Generated by graphviz version 11.0.0 (20240428.1522)
 -->
<!-- Title: G Pages: 1 -->
<svg width="1215pt" height="404pt"
 viewBox="0.00 0.00 1215.00 404.00" xmlns="http://www.w3.org/2000/svg" xmlns:xlink="http://www.w3.org/1999/xlink">
<g id="graph0" class="graph" transform="scale(1 1) rotate(0) translate(4 400)">
<title>G</title>
<polygon fill="white" stroke="none" points="-4,4 -4,-400 1211,-400 1211,4 -4,4"/>
<!-- :feature:reports -->
<g id="node1" class="node">
<title>:feature:reports</title>
<ellipse fill="none" stroke="black" cx="498" cy="-378" rx="66.03" ry="18"/>
<text text-anchor="middle" x="498" y="-372.57" font-family="Times New Roman,serif" font-size="14.00">:feature:reports</text>
</g>
<!-- :feature:printer -->
<g id="node2" class="node">
<title>:feature:printer</title>
<ellipse fill="none" stroke="black" cx="358" cy="-306" rx="63.54" ry="18"/>
<text text-anchor="middle" x="358" y="-300.57" font-family="Times New Roman,serif" font-size="14.00">:feature:printer</text>
</g>
<!-- :feature:reports&#45;&gt;:feature:printer -->
<g id="edge1" class="edge">
<title>:feature:reports&#45;&gt;:feature:printer</title>
<path fill="none" stroke="red" stroke-width="2" d="M467.28,-361.64C446.99,-351.49 420.19,-338.09 398.21,-327.1"/>
<polygon fill="red" stroke="red" stroke-width="2" points="401.39,-324.78 390.88,-323.44 398.26,-331.04 401.39,-324.78"/>
</g>
<!-- :core:model -->
<g id="node3" class="node">
<title>:core:model</title>
<ellipse fill="none" stroke="black" cx="552" cy="-18" rx="54.06" ry="18"/>
<text text-anchor="middle" x="552" y="-12.57" font-family="Times New Roman,serif" font-size="14.00">:core:model</text>
</g>
<!-- :feature:reports&#45;&gt;:core:model -->
<g id="edge2" class="edge">
<title>:feature:reports&#45;&gt;:core:model</title>
<path fill="none" stroke="black" d="M434.93,-372.32C300.92,-360.64 0,-324.45 0,-235 0,-235 0,-235 0,-161 0,-100.84 47,-96.39 102,-72 169.48,-42.08 379.84,-27.55 487.34,-21.92"/>
<polygon fill="black" stroke="black" points="487.36,-25.42 497.16,-21.42 487,-18.43 487.36,-25.42"/>
</g>
<!-- :core:ui -->
<g id="node4" class="node">
<title>:core:ui</title>
<ellipse fill="none" stroke="black" cx="266" cy="-234" rx="37.59" ry="18"/>
<text text-anchor="middle" x="266" y="-228.57" font-family="Times New Roman,serif" font-size="14.00">:core:ui</text>
</g>
<!-- :feature:reports&#45;&gt;:core:ui -->
<g id="edge3" class="edge">
<title>:feature:reports&#45;&gt;:core:ui</title>
<path fill="none" stroke="black" d="M439.29,-369.44C383.85,-361.09 306.16,-345.88 285,-324 269.63,-308.1 265.39,-282.99 264.7,-263.49"/>
<polygon fill="black" stroke="black" points="268.2,-263.7 264.67,-253.71 261.2,-263.72 268.2,-263.7"/>
</g>
<!-- :core:designsystem -->
<g id="node5" class="node">
<title>:core:designsystem</title>
<ellipse fill="none" stroke="black" cx="147" cy="-162" rx="81" ry="18"/>
<text text-anchor="middle" x="147" y="-156.57" font-family="Times New Roman,serif" font-size="14.00">:core:designsystem</text>
</g>
<!-- :feature:reports&#45;&gt;:core:designsystem -->
<g id="edge4" class="edge">
<title>:feature:reports&#45;&gt;:core:designsystem</title>
<path fill="none" stroke="black" d="M438.66,-369.82C389.97,-362.49 320.03,-348.59 263,-324 210.36,-301.31 185.45,-301.17 156,-252 145.2,-233.97 143.3,-210.12 143.92,-191.65"/>
<polygon fill="black" stroke="black" points="147.39,-192.12 144.52,-181.92 140.41,-191.68 147.39,-192.12"/>
</g>
<!-- :core:data -->
<g id="node6" class="node">
<title>:core:data</title>
<ellipse fill="none" stroke="black" cx="709" cy="-162" rx="46.57" ry="18"/>
<text text-anchor="middle" x="709" y="-156.57" font-family="Times New Roman,serif" font-size="14.00">:core:data</text>
</g>
<!-- :feature:reports&#45;&gt;:core:data -->
<g id="edge5" class="edge">
<title>:feature:reports&#45;&gt;:core:data</title>
<path fill="none" stroke="black" d="M558.25,-370.18C614.15,-362.46 691.44,-347.77 710,-324 739.67,-286 728.9,-226.11 718.72,-191.08"/>
<polygon fill="black" stroke="black" points="722.11,-190.18 715.8,-181.67 715.42,-192.26 722.11,-190.18"/>
</g>
<!-- :core:common -->
<g id="node7" class="node">
<title>:core:common</title>
<ellipse fill="none" stroke="black" cx="920" cy="-18" rx="64.04" ry="18"/>
<text text-anchor="middle" x="920" y="-12.57" font-family="Times New Roman,serif" font-size="14.00">:core:common</text>
</g>
<!-- :feature:reports&#45;&gt;:core:common -->
<g id="edge6" class="edge">
<title>:feature:reports&#45;&gt;:core:common</title>
<path fill="none" stroke="black" d="M564.38,-377.67C740.64,-377.66 1207,-365.32 1207,-235 1207,-235 1207,-235 1207,-161 1207,-107.21 1171.14,-99.64 1125,-72 1118.55,-68.13 1036.52,-47.54 978.21,-33.19"/>
<polygon fill="black" stroke="black" points="979.28,-29.85 968.73,-30.86 977.61,-36.65 979.28,-29.85"/>
</g>
<!-- :core:domain -->
<g id="node8" class="node">
<title>:core:domain</title>
<ellipse fill="none" stroke="black" cx="609" cy="-234" rx="58.55" ry="18"/>
<text text-anchor="middle" x="609" y="-228.57" font-family="Times New Roman,serif" font-size="14.00">:core:domain</text>
</g>
<!-- :feature:reports&#45;&gt;:core:domain -->
<g id="edge7" class="edge">
<title>:feature:reports&#45;&gt;:core:domain</title>
<path fill="none" stroke="black" d="M523.19,-361.12C536.83,-351.59 553.24,-338.53 565,-324 579.82,-305.69 591.35,-281.57 598.89,-263.06"/>
<polygon fill="black" stroke="black" points="602.14,-264.36 602.51,-253.77 595.61,-261.82 602.14,-264.36"/>
</g>
<!-- :core:analytics -->
<g id="node9" class="node">
<title>:core:analytics</title>
<ellipse fill="none" stroke="black" cx="461" cy="-90" rx="63.04" ry="18"/>
<text text-anchor="middle" x="461" y="-84.58" font-family="Times New Roman,serif" font-size="14.00">:core:analytics</text>
</g>
<!-- :feature:reports&#45;&gt;:core:analytics -->
<g id="edge8" class="edge">
<title>:feature:reports&#45;&gt;:core:analytics</title>
<path fill="none" stroke="black" d="M537.74,-363.27C601.62,-338.85 716.2,-283.98 677,-216 642.95,-156.96 569.19,-123.28 517.37,-106.08"/>
<polygon fill="black" stroke="black" points="518.7,-102.83 508.11,-103.12 516.57,-109.5 518.7,-102.83"/>
</g>
<!-- :feature:chart -->
<g id="node10" class="node">
<title>:feature:chart</title>
<ellipse fill="none" stroke="black" cx="498" cy="-306" rx="58.05" ry="18"/>
<text text-anchor="middle" x="498" y="-300.57" font-family="Times New Roman,serif" font-size="14.00">:feature:chart</text>
</g>
<!-- :feature:reports&#45;&gt;:feature:chart -->
<g id="edge9" class="edge">
<title>:feature:reports&#45;&gt;:feature:chart</title>
<path fill="none" stroke="black" d="M498,-359.7C498,-352.41 498,-343.73 498,-335.54"/>
<polygon fill="black" stroke="black" points="501.5,-335.62 498,-325.62 494.5,-335.62 501.5,-335.62"/>
</g>
<!-- :feature:printer&#45;&gt;:core:model -->
<g id="edge10" class="edge">
<title>:feature:printer&#45;&gt;:core:model</title>
<path fill="none" stroke="black" d="M301.16,-297.68C196.81,-281.82 -8.86,-237.87 57,-144 106.56,-73.36 367.11,-37.86 489.01,-24.92"/>
<polygon fill="black" stroke="black" points="489.27,-28.41 498.85,-23.89 488.54,-21.44 489.27,-28.41"/>
</g>
<!-- :feature:printer&#45;&gt;:core:ui -->
<g id="edge11" class="edge">
<title>:feature:printer&#45;&gt;:core:ui</title>
<path fill="none" stroke="black" d="M336.66,-288.76C324.07,-279.18 307.97,-266.94 294.33,-256.55"/>
<polygon fill="black" stroke="black" points="296.62,-253.9 286.55,-250.63 292.39,-259.47 296.62,-253.9"/>
</g>
<!-- :feature:printer&#45;&gt;:core:designsystem -->
<g id="edge12" class="edge">
<title>:feature:printer&#45;&gt;:core:designsystem</title>
<path fill="none" stroke="black" d="M297.61,-300.1C260.2,-294.13 213.45,-280.97 182,-252 164.83,-236.18 155.96,-210.89 151.46,-191.3"/>
<polygon fill="black" stroke="black" points="154.94,-190.86 149.53,-181.75 148.07,-192.24 154.94,-190.86"/>
</g>
<!-- :feature:printer&#45;&gt;:core:data -->
<g id="edge13" class="edge">
<title>:feature:printer&#45;&gt;:core:data</title>
<path fill="none" stroke="black" d="M386.57,-289.48C422.08,-270.56 484.88,-238.36 541,-216 580.57,-200.24 626.8,-185.94 660.74,-176.18"/>
<polygon fill="black" stroke="black" points="661.63,-179.56 670.29,-173.46 659.72,-172.83 661.63,-179.56"/>
</g>
<!-- :feature:printer&#45;&gt;:core:common -->
<g id="edge14" class="edge">
<title>:feature:printer&#45;&gt;:core:common</title>
<path fill="none" stroke="black" d="M353.98,-287.55C345.09,-244.03 329.03,-130.03 389,-72 405.24,-56.29 705.11,-33.74 846.88,-23.9"/>
<polygon fill="black" stroke="black" points="846.8,-27.42 856.54,-23.24 846.32,-20.44 846.8,-27.42"/>
</g>
<!-- :feature:printer&#45;&gt;:core:domain -->
<g id="edge15" class="edge">
<title>:feature:printer&#45;&gt;:core:domain</title>
<path fill="none" stroke="red" stroke-width="2" d="M402.3,-292.65C445.2,-280.68 510.3,-262.53 555.95,-249.8"/>
<polygon fill="red" stroke="red" stroke-width="2" points="555.21,-253.63 563.9,-247.58 553.33,-246.89 555.21,-253.63"/>
</g>
<!-- :feature:printer&#45;&gt;:core:analytics -->
<g id="edge16" class="edge">
<title>:feature:printer&#45;&gt;:core:analytics</title>
<path fill="none" stroke="black" d="M366.25,-287.85C384.07,-250.83 426.26,-163.18 447.82,-118.39"/>
<polygon fill="black" stroke="black" points="450.87,-120.12 452.05,-109.6 444.56,-117.09 450.87,-120.12"/>
</g>
<!-- :core:ui&#45;&gt;:core:model -->
<g id="edge19" class="edge">
<title>:core:ui&#45;&gt;:core:model</title>
<path fill="none" stroke="black" d="M261.55,-215.86C254.22,-183.32 243.79,-112.26 280,-72 307.07,-41.91 416.04,-28.48 487.57,-22.81"/>
<polygon fill="black" stroke="black" points="487.5,-26.32 497.2,-22.08 486.97,-19.34 487.5,-26.32"/>
</g>
<!-- :core:ui&#45;&gt;:core:designsystem -->
<g id="edge18" class="edge">
<title>:core:ui&#45;&gt;:core:designsystem</title>
<path fill="none" stroke="black" d="M243.06,-219.5C226.38,-209.69 203.44,-196.2 184.16,-184.86"/>
<polygon fill="black" stroke="black" points="186.17,-181.98 175.77,-179.93 182.62,-188.01 186.17,-181.98"/>
</g>
<!-- :core:ui&#45;&gt;:core:common -->
<g id="edge20" class="edge">
<title>:core:ui&#45;&gt;:core:common</title>
<path fill="none" stroke="black" d="M269.98,-215.74C278.85,-181.66 303.68,-106.08 356,-72 376.29,-58.78 699.32,-34.52 847.15,-24.04"/>
<polygon fill="black" stroke="black" points="847.1,-27.55 856.83,-23.36 846.61,-20.57 847.1,-27.55"/>
</g>
<!-- :core:ui&#45;&gt;:core:analytics -->
<g id="edge17" class="edge">
<title>:core:ui&#45;&gt;:core:analytics</title>
<path fill="none" stroke="black" d="M286.13,-218.34C320.19,-193.54 389.38,-143.15 429.77,-113.74"/>
<polygon fill="black" stroke="black" points="431.65,-116.7 437.67,-107.99 427.53,-111.05 431.65,-116.7"/>
</g>
<!-- :core:data&#45;&gt;:core:model -->
<g id="edge24" class="edge">
<title>:core:data&#45;&gt;:core:model</title>
<path fill="none" stroke="black" d="M676.64,-148.91C655.65,-139.93 628.66,-126.1 609,-108 590.07,-90.57 574.77,-65.52 564.81,-46.44"/>
<polygon fill="black" stroke="black" points="568,-44.99 560.38,-37.62 561.74,-48.12 568,-44.99"/>
</g>
<!-- :core:data&#45;&gt;:core:common -->
<g id="edge21" class="edge">
<title>:core:data&#45;&gt;:core:common</title>
<path fill="none" stroke="black" d="M756.05,-161.44C845.19,-161.17 1033.41,-154.91 1074,-108 1084.47,-95.9 1083.29,-85.03 1074,-72 1067.89,-63.44 1016.92,-46.94 975.26,-34.62"/>
<polygon fill="black" stroke="black" points="976.39,-31.3 965.8,-31.84 974.42,-38.02 976.39,-31.3"/>
</g>
<!-- :core:data&#45;&gt;:core:analytics -->
<g id="edge25" class="edge">
<title>:core:data&#45;&gt;:core:analytics</title>
<path fill="none" stroke="black" d="M672.14,-150.6C630.79,-138.93 563.31,-119.88 515.78,-106.46"/>
<polygon fill="black" stroke="black" points="516.79,-103.11 506.22,-103.76 514.89,-109.85 516.79,-103.11"/>
</g>
<!-- :core:database -->
<g id="node11" class="node">
<title>:core:database</title>
<ellipse fill="none" stroke="black" cx="682" cy="-90" rx="63.54" ry="18"/>
<text text-anchor="middle" x="682" y="-84.58" font-family="Times New Roman,serif" font-size="14.00">:core:database</text>
</g>
<!-- :core:data&#45;&gt;:core:database -->
<g id="edge22" class="edge">
<title>:core:data&#45;&gt;:core:database</title>
<path fill="none" stroke="red" stroke-width="2" d="M702.33,-143.7C699.42,-136.15 695.93,-127.12 692.68,-118.68"/>
<polygon fill="red" stroke="red" stroke-width="2" points="696.55,-119 689.69,-110.93 690.02,-121.52 696.55,-119"/>
</g>
<!-- :core:datastore -->
<g id="node12" class="node">
<title>:core:datastore</title>
<ellipse fill="none" stroke="black" cx="1000" cy="-90" rx="65.04" ry="18"/>
<text text-anchor="middle" x="1000" y="-84.58" font-family="Times New Roman,serif" font-size="14.00">:core:datastore</text>
</g>
<!-- :core:data&#45;&gt;:core:datastore -->
<g id="edge23" class="edge">
<title>:core:data&#45;&gt;:core:datastore</title>
<path fill="none" stroke="black" d="M747.94,-151.63C797.45,-139.72 883.4,-119.05 940.99,-105.2"/>
<polygon fill="black" stroke="black" points="941.73,-108.62 950.63,-102.87 940.09,-101.81 941.73,-108.62"/>
</g>
<!-- :core:notifications -->
<g id="node13" class="node">
<title>:core:notifications</title>
<ellipse fill="none" stroke="black" cx="840" cy="-90" rx="76.51" ry="18"/>
<text text-anchor="middle" x="840" y="-84.58" font-family="Times New Roman,serif" font-size="14.00">:core:notifications</text>
</g>
<!-- :core:data&#45;&gt;:core:notifications -->
<g id="edge26" class="edge">
<title>:core:data&#45;&gt;:core:notifications</title>
<path fill="none" stroke="black" d="M735.51,-146.83C754.14,-136.88 779.39,-123.39 800.4,-112.16"/>
<polygon fill="black" stroke="black" points="801.83,-115.37 809,-107.57 798.53,-109.19 801.83,-115.37"/>
</g>
<!-- :core:domain&#45;&gt;:core:model -->
<g id="edge35" class="edge">
<title>:core:domain&#45;&gt;:core:model</title>
<path fill="none" stroke="black" d="M604.2,-215.63C597.55,-191.5 585.2,-146.48 575,-108 569.65,-87.82 563.76,-65.03 559.28,-47.56"/>
<polygon fill="black" stroke="black" points="562.68,-46.7 556.81,-37.88 555.89,-48.43 562.68,-46.7"/>
</g>
<!-- :core:domain&#45;&gt;:core:data -->
<g id="edge34" class="edge">
<title>:core:domain&#45;&gt;:core:data</title>
<path fill="none" stroke="red" stroke-width="2" d="M631.69,-217.12C645.31,-207.59 662.82,-195.33 677.73,-184.89"/>
<polygon fill="red" stroke="red" stroke-width="2" points="678.42,-188.68 684.61,-180.08 674.41,-182.94 678.42,-188.68"/>
</g>
<!-- :core:domain&#45;&gt;:core:common -->
<g id="edge36" class="edge">
<title>:core:domain&#45;&gt;:core:common</title>
<path fill="none" stroke="black" d="M663.51,-227.13C778.28,-213.54 1038.56,-175.77 1091,-108 1100.79,-95.35 1100.49,-84.88 1091,-72 1083.98,-62.47 1024.8,-45.53 978,-33.36"/>
<polygon fill="black" stroke="black" points="979.04,-30.01 968.48,-30.91 977.29,-36.79 979.04,-30.01"/>
</g>
<!-- :feature:chart&#45;&gt;:core:model -->
<g id="edge37" class="edge">
<title>:feature:chart&#45;&gt;:core:model</title>
<path fill="none" stroke="black" d="M479.07,-288.61C435.48,-248.88 335.72,-145.35 389,-72 411.33,-41.26 451.93,-28 487.03,-22.43"/>
<polygon fill="black" stroke="black" points="487.27,-25.93 496.7,-21.09 486.31,-18.99 487.27,-25.93"/>
</g>
<!-- :feature:chart&#45;&gt;:core:ui -->
<g id="edge38" class="edge">
<title>:feature:chart&#45;&gt;:core:ui</title>
<path fill="none" stroke="black" d="M457.32,-292.73C415.45,-280.09 350.51,-260.5 308.12,-247.71"/>
<polygon fill="black" stroke="black" points="309.36,-244.43 298.77,-244.89 307.34,-251.13 309.36,-244.43"/>
</g>
<!-- :feature:chart&#45;&gt;:core:designsystem -->
<g id="edge39" class="edge">
<title>:feature:chart&#45;&gt;:core:designsystem</title>
<path fill="none" stroke="black" d="M454.87,-293.51C446.96,-291.56 438.75,-289.64 431,-288 337.5,-268.23 301.49,-300.27 219,-252 205.64,-244.18 181.89,-212.94 165.33,-189.66"/>
<polygon fill="black" stroke="black" points="168.21,-187.67 159.6,-181.5 162.48,-191.7 168.21,-187.67"/>
</g>
<!-- :feature:chart&#45;&gt;:core:data -->
<g id="edge40" class="edge">
<title>:feature:chart&#45;&gt;:core:data</title>
<path fill="none" stroke="black" d="M554.63,-301.4C593.57,-296.08 644.01,-283.15 677,-252 693.71,-236.22 701.71,-211.1 705.53,-191.56"/>
<polygon fill="black" stroke="black" points="708.98,-192.18 707.17,-181.74 702.07,-191.03 708.98,-192.18"/>
</g>
<!-- :feature:chart&#45;&gt;:core:common -->
<g id="edge41" class="edge">
<title>:feature:chart&#45;&gt;:core:common</title>
<path fill="none" stroke="black" d="M549.54,-297.44C686.68,-276.04 1053.74,-209.92 1108,-108 1115.52,-93.88 1117.66,-84.76 1108,-72 1103.9,-66.59 1031.39,-47.21 977.65,-33.46"/>
<polygon fill="black" stroke="black" points="978.51,-30.07 967.96,-30.99 976.78,-36.85 978.51,-30.07"/>
</g>
<!-- :feature:chart&#45;&gt;:core:domain -->
<g id="edge42" class="edge">
<title>:feature:chart&#45;&gt;:core:domain</title>
<path fill="none" stroke="black" d="M522.91,-289.29C538.19,-279.65 557.97,-267.18 574.72,-256.62"/>
<polygon fill="black" stroke="black" points="576.3,-259.76 582.89,-251.46 572.57,-253.84 576.3,-259.76"/>
</g>
<!-- :feature:chart&#45;&gt;:core:analytics -->
<g id="edge43" class="edge">
<title>:feature:chart&#45;&gt;:core:analytics</title>
<path fill="none" stroke="black" d="M495.03,-287.85C488.69,-251.14 473.74,-164.66 465.93,-119.53"/>
<polygon fill="black" stroke="black" points="469.39,-118.98 464.24,-109.72 462.49,-120.17 469.39,-118.98"/>
</g>
<!-- :core:database&#45;&gt;:core:model -->
<g id="edge27" class="edge">
<title>:core:database&#45;&gt;:core:model</title>
<path fill="none" stroke="red" stroke-width="2" d="M653.47,-73.64C634.67,-63.52 609.86,-50.15 589.47,-39.18"/>
<polygon fill="red" stroke="red" stroke-width="2" points="592.7,-36.94 582.24,-35.28 589.38,-43.1 592.7,-36.94"/>
</g>
<!-- :core:database&#45;&gt;:core:common -->
<g id="edge28" class="edge">
<title>:core:database&#45;&gt;:core:common</title>
<path fill="none" stroke="black" d="M725.1,-76.32C764.57,-64.71 823.17,-47.48 865.8,-34.94"/>
<polygon fill="black" stroke="black" points="866.76,-38.31 875.37,-32.13 864.79,-31.59 866.76,-38.31"/>
</g>
<!-- :core:datastore&#45;&gt;:core:model -->
<g id="edge30" class="edge">
<title>:core:datastore&#45;&gt;:core:model</title>
<path fill="none" stroke="black" d="M952.36,-77.43C943.62,-75.48 934.55,-73.59 926,-72 816.68,-51.73 688.11,-35.06 613.75,-26.12"/>
<polygon fill="black" stroke="black" points="614.58,-22.69 604.24,-24.98 613.75,-29.64 614.58,-22.69"/>
</g>
<!-- :core:datastore&#45;&gt;:core:common -->
<g id="edge31" class="edge">
<title>:core:datastore&#45;&gt;:core:common</title>
<path fill="none" stroke="black" d="M981.04,-72.41C970.98,-63.61 958.43,-52.63 947.34,-42.92"/>
<polygon fill="black" stroke="black" points="949.79,-40.42 939.96,-36.47 945.18,-45.69 949.79,-40.42"/>
</g>
<!-- :core:datastore&#45;proto -->
<g id="node14" class="node">
<title>:core:datastore&#45;proto</title>
<ellipse fill="none" stroke="black" cx="1091" cy="-18" rx="88.49" ry="18"/>
<text text-anchor="middle" x="1091" y="-12.57" font-family="Times New Roman,serif" font-size="14.00">:core:datastore&#45;proto</text>
</g>
<!-- :core:datastore&#45;&gt;:core:datastore&#45;proto -->
<g id="edge29" class="edge">
<title>:core:datastore&#45;&gt;:core:datastore&#45;proto</title>
<path fill="none" stroke="black" d="M1021.11,-72.76C1032.68,-63.86 1047.25,-52.65 1060.09,-42.78"/>
<polygon fill="black" stroke="black" points="1062.07,-45.67 1067.86,-36.8 1057.8,-40.12 1062.07,-45.67"/>
</g>
<!-- :core:notifications&#45;&gt;:core:model -->
<g id="edge32" class="edge">
<title>:core:notifications&#45;&gt;:core:model</title>
<path fill="none" stroke="black" d="M788.18,-76.4C736.58,-63.86 657.74,-44.7 605.54,-32.01"/>
<polygon fill="black" stroke="black" points="606.52,-28.65 595.97,-29.69 604.87,-35.45 606.52,-28.65"/>
</g>
<!-- :core:notifications&#45;&gt;:core:common -->
<g id="edge33" class="edge">
<title>:core:notifications&#45;&gt;:core:common</title>
<path fill="none" stroke="black" d="M858.96,-72.41C869.02,-63.61 881.57,-52.63 892.66,-42.92"/>
<polygon fill="black" stroke="black" points="894.82,-45.69 900.04,-36.47 890.21,-40.42 894.82,-45.69"/>
</g>
</g>
</svg>
