<?xml version="1.0" encoding="UTF-8" standalone="no"?>
<!DOCTYPE svg PUBLIC "-//W3C//DTD SVG 1.1//EN"
 "http://www.w3.org/Graphics/SVG/1.1/DTD/svg11.dtd">
<!-- Generated by graphviz version 11.0.0 (20240428.1522)
 -->
<!-- Title: G Pages: 1 -->
<svg width="262pt" height="116pt" viewBox="0.00 0.00 262.10 116.00" xmlns="http://www.w3.org/2000/svg">
<g id="graph0" class="graph" transform="scale(1 1) rotate(0) translate(4 112)">
<title>G</title>
<polygon fill="white" stroke="none" points="-4,4 -4,-112 258.1,-112 258.1,4 -4,4"/>
<!-- :core:notifications -->
<g id="node1" class="node">
<title>:core:notifications</title>
<ellipse fill="none" stroke="black" cx="122.06" cy="-90" rx="76.51" ry="18"/>
<text text-anchor="middle" x="122.06" y="-84.58" font-family="Times New Roman,serif" font-size="14.00">:core:notifications</text>
</g>
<!-- :core:model -->
<g id="node2" class="node">
<title>:core:model</title>
<ellipse fill="none" stroke="black" cx="54.06" cy="-18" rx="54.06" ry="18"/>
<text text-anchor="middle" x="54.06" y="-12.57" font-family="Times New Roman,serif" font-size="14.00">:core:model</text>
</g>
<!-- :core:notifications&#45;&gt;:core:model -->
<g id="edge1" class="edge">
<title>:core:notifications&#45;&gt;:core:model</title>
<path fill="none" stroke="red" stroke-width="2" d="M105.6,-72.05C97.29,-63.5 87.06,-52.97 77.91,-43.56"/>
<polygon fill="red" stroke="red" stroke-width="2" points="81.49,-42.21 72.01,-37.48 76.47,-47.09 81.49,-42.21"/>
</g>
<!-- :core:common -->
<g id="node3" class="node">
<title>:core:common</title>
<ellipse fill="none" stroke="black" cx="190.06" cy="-18" rx="64.04" ry="18"/>
<text text-anchor="middle" x="190.06" y="-12.57" font-family="Times New Roman,serif" font-size="14.00">:core:common</text>
</g>
<!-- :core:notifications&#45;&gt;:core:common -->
<g id="edge2" class="edge">
<title>:core:notifications&#45;&gt;:core:common</title>
<path fill="none" stroke="black" d="M138.52,-72.05C146.7,-63.63 156.76,-53.28 165.8,-43.97"/>
<polygon fill="black" stroke="black" points="168.24,-46.49 172.69,-36.87 163.22,-41.61 168.24,-46.49"/>
</g>
</g>
</svg>
