<?xml version="1.0" encoding="UTF-8" standalone="no"?>
<!DOCTYPE svg PUBLIC "-//W3C//DTD SVG 1.1//EN"
 "http://www.w3.org/Graphics/SVG/1.1/DTD/svg11.dtd">
<!-- Generated by graphviz version 11.0.0 (20240428.1522)
 -->
<!-- Title: G Pages: 1 -->
<svg width="458pt" height="116pt" viewBox="0.00 0.00 457.53 116.00" xmlns="http://www.w3.org/2000/svg">
<g id="graph0" class="graph" transform="scale(1 1) rotate(0) translate(4 112)">
<title>G</title>
<polygon fill="white" stroke="none" points="-4,4 -4,-112 453.53,-112 453.53,4 -4,4"/>
<!-- :core:datastore -->
<g id="node1" class="node">
<title>:core:datastore</title>
<ellipse fill="none" stroke="black" cx="249.49" cy="-90" rx="65.04" ry="18"/>
<text text-anchor="middle" x="249.49" y="-84.58" font-family="Times New Roman,serif" font-size="14.00">:core:datastore</text>
</g>
<!-- :core:datastore&#45;proto -->
<g id="node2" class="node">
<title>:core:datastore&#45;proto</title>
<ellipse fill="none" stroke="black" cx="88.49" cy="-18" rx="88.49" ry="18"/>
<text text-anchor="middle" x="88.49" y="-12.57" font-family="Times New Roman,serif" font-size="14.00">:core:datastore&#45;proto</text>
</g>
<!-- :core:datastore&#45;&gt;:core:datastore&#45;proto -->
<g id="edge1" class="edge">
<title>:core:datastore&#45;&gt;:core:datastore&#45;proto</title>
<path fill="none" stroke="red" stroke-width="2" d="M215.74,-74.33C192.32,-64.14 160.82,-50.45 135.02,-39.23"/>
<polygon fill="red" stroke="red" stroke-width="2" points="138.06,-36.73 127.49,-35.96 135.26,-43.15 138.06,-36.73"/>
</g>
<!-- :core:model -->
<g id="node3" class="node">
<title>:core:model</title>
<ellipse fill="none" stroke="black" cx="249.49" cy="-18" rx="54.06" ry="18"/>
<text text-anchor="middle" x="249.49" y="-12.57" font-family="Times New Roman,serif" font-size="14.00">:core:model</text>
</g>
<!-- :core:datastore&#45;&gt;:core:model -->
<g id="edge2" class="edge">
<title>:core:datastore&#45;&gt;:core:model</title>
<path fill="none" stroke="black" d="M249.49,-71.7C249.49,-64.41 249.49,-55.73 249.49,-47.54"/>
<polygon fill="black" stroke="black" points="252.99,-47.62 249.49,-37.62 245.99,-47.62 252.99,-47.62"/>
</g>
<!-- :core:common -->
<g id="node4" class="node">
<title>:core:common</title>
<ellipse fill="none" stroke="black" cx="385.49" cy="-18" rx="64.04" ry="18"/>
<text text-anchor="middle" x="385.49" y="-12.57" font-family="Times New Roman,serif" font-size="14.00">:core:common</text>
</g>
<!-- :core:datastore&#45;&gt;:core:common -->
<g id="edge3" class="edge">
<title>:core:datastore&#45;&gt;:core:common</title>
<path fill="none" stroke="black" d="M279.33,-73.64C298.82,-63.61 324.49,-50.4 345.7,-39.48"/>
<polygon fill="black" stroke="black" points="347.08,-42.71 354.37,-35.02 343.87,-36.48 347.08,-42.71"/>
</g>
</g>
</svg>
