<?xml version="1.0" encoding="UTF-8" standalone="no"?>
<!DOCTYPE svg PUBLIC "-//W3C//DTD SVG 1.1//EN"
 "http://www.w3.org/Graphics/SVG/1.1/DTD/svg11.dtd">
<!-- Generated by graphviz version 11.0.0 (20240428.1522)
 -->
<!-- Title: G Pages: 1 -->
<svg width="653pt" height="188pt" viewBox="0.00 0.00 652.97 188.00" xmlns="http://www.w3.org/2000/svg">
<g id="graph0" class="graph" transform="scale(1 1) rotate(0) translate(4 184)">
<title>G</title>
<polygon fill="white" stroke="none" points="-4,4 -4,-184 648.97,-184 648.97,4 -4,4"/>
<!-- :core:data -->
<g id="node1" class="node">
<title>:core:data</title>
<ellipse fill="none" stroke="black" cx="317.93" cy="-162" rx="46.57" ry="18"/>
<text text-anchor="middle" x="317.93" y="-156.57" font-family="Times New Roman,serif" font-size="14.00">:core:data</text>
</g>
<!-- :core:common -->
<g id="node2" class="node">
<title>:core:common</title>
<ellipse fill="none" stroke="black" cx="90.93" cy="-18" rx="64.04" ry="18"/>
<text text-anchor="middle" x="90.93" y="-12.57" font-family="Times New Roman,serif" font-size="14.00">:core:common</text>
</g>
<!-- :core:data&#45;&gt;:core:common -->
<g id="edge1" class="edge">
<title>:core:data&#45;&gt;:core:common</title>
<path fill="none" stroke="black" d="M271.41,-160.12C193.11,-157.54 40.22,-147.45 6.93,-108 -3.39,-95.77 -0.8,-86.01 6.93,-72 14.98,-57.4 28.93,-46.27 43.18,-38.07"/>
<polygon fill="black" stroke="black" points="44.49,-41.34 51.68,-33.56 41.21,-35.15 44.49,-41.34"/>
</g>
<!-- :core:database -->
<g id="node3" class="node">
<title>:core:database</title>
<ellipse fill="none" stroke="black" cx="79.93" cy="-90" rx="63.54" ry="18"/>
<text text-anchor="middle" x="79.93" y="-84.58" font-family="Times New Roman,serif" font-size="14.00">:core:database</text>
</g>
<!-- :core:data&#45;&gt;:core:database -->
<g id="edge2" class="edge">
<title>:core:data&#45;&gt;:core:database</title>
<path fill="none" stroke="red" stroke-width="2" d="M281.52,-150.29C242.07,-138.69 178.7,-120.05 133.55,-106.77"/>
<polygon fill="red" stroke="red" stroke-width="2" points="136.26,-103.92 125.68,-104.46 134.29,-110.64 136.26,-103.92"/>
</g>
<!-- :core:datastore -->
<g id="node4" class="node">
<title>:core:datastore</title>
<ellipse fill="none" stroke="black" cx="397.93" cy="-90" rx="65.04" ry="18"/>
<text text-anchor="middle" x="397.93" y="-84.58" font-family="Times New Roman,serif" font-size="14.00">:core:datastore</text>
</g>
<!-- :core:data&#45;&gt;:core:datastore -->
<g id="edge3" class="edge">
<title>:core:data&#45;&gt;:core:datastore</title>
<path fill="none" stroke="black" d="M336.08,-145.12C346.3,-136.18 359.25,-124.85 370.66,-114.86"/>
<polygon fill="black" stroke="black" points="372.65,-117.77 377.87,-108.55 368.04,-112.5 372.65,-117.77"/>
</g>
<!-- :core:model -->
<g id="node5" class="node">
<title>:core:model</title>
<ellipse fill="none" stroke="black" cx="237.93" cy="-18" rx="54.06" ry="18"/>
<text text-anchor="middle" x="237.93" y="-12.57" font-family="Times New Roman,serif" font-size="14.00">:core:model</text>
</g>
<!-- :core:data&#45;&gt;:core:model -->
<g id="edge4" class="edge">
<title>:core:data&#45;&gt;:core:model</title>
<path fill="none" stroke="black" d="M359.37,-153.64C416.07,-141.79 507.02,-115.3 471.93,-72 423.3,-12 377.05,-53.92 301.93,-36 297.95,-35.05 293.84,-34.04 289.71,-32.99"/>
<polygon fill="black" stroke="black" points="290.84,-29.67 280.29,-30.57 289.1,-36.45 290.84,-29.67"/>
</g>
<!-- :core:analytics -->
<g id="node6" class="node">
<title>:core:analytics</title>
<ellipse fill="none" stroke="black" cx="581.93" cy="-90" rx="63.04" ry="18"/>
<text text-anchor="middle" x="581.93" y="-84.58" font-family="Times New Roman,serif" font-size="14.00">:core:analytics</text>
</g>
<!-- :core:data&#45;&gt;:core:analytics -->
<g id="edge5" class="edge">
<title>:core:data&#45;&gt;:core:analytics</title>
<path fill="none" stroke="black" d="M355.47,-151.05C400.04,-139.23 474.76,-119.42 526.1,-105.8"/>
<polygon fill="black" stroke="black" points="526.77,-109.25 535.54,-103.3 524.98,-102.48 526.77,-109.25"/>
</g>
<!-- :core:notifications -->
<g id="node7" class="node">
<title>:core:notifications</title>
<ellipse fill="none" stroke="black" cx="237.93" cy="-90" rx="76.51" ry="18"/>
<text text-anchor="middle" x="237.93" y="-84.58" font-family="Times New Roman,serif" font-size="14.00">:core:notifications</text>
</g>
<!-- :core:data&#45;&gt;:core:notifications -->
<g id="edge6" class="edge">
<title>:core:data&#45;&gt;:core:notifications</title>
<path fill="none" stroke="black" d="M299.78,-145.12C289.74,-136.33 277.05,-125.23 265.78,-115.37"/>
<polygon fill="black" stroke="black" points="268.1,-112.75 258.27,-108.79 263.49,-118.01 268.1,-112.75"/>
</g>
<!-- :core:database&#45;&gt;:core:common -->
<g id="edge8" class="edge">
<title>:core:database&#45;&gt;:core:common</title>
<path fill="none" stroke="black" d="M82.65,-71.7C83.81,-64.32 85.19,-55.52 86.49,-47.25"/>
<polygon fill="black" stroke="black" points="89.91,-48.02 88.01,-37.6 83,-46.93 89.91,-48.02"/>
</g>
<!-- :core:database&#45;&gt;:core:model -->
<g id="edge7" class="edge">
<title>:core:database&#45;&gt;:core:model</title>
<path fill="none" stroke="red" stroke-width="2" d="M113.05,-74.33C137.23,-63.61 170.18,-49.02 196.16,-37.5"/>
<polygon fill="red" stroke="red" stroke-width="2" points="195.97,-41.42 203.7,-34.17 193.14,-35.02 195.97,-41.42"/>
</g>
<!-- :core:datastore&#45;&gt;:core:common -->
<g id="edge11" class="edge">
<title>:core:datastore&#45;&gt;:core:common</title>
<path fill="none" stroke="black" d="M348.97,-77.74C340.62,-75.82 332.03,-73.85 323.93,-72 265.09,-58.55 197.86,-43.27 150.79,-32.58"/>
<polygon fill="black" stroke="black" points="151.58,-29.17 141.05,-30.37 150.03,-36 151.58,-29.17"/>
</g>
<!-- :core:datastore&#45;&gt;:core:model -->
<g id="edge10" class="edge">
<title>:core:datastore&#45;&gt;:core:model</title>
<path fill="none" stroke="black" d="M364.39,-74.33C339.9,-63.61 306.54,-49.02 280.22,-37.5"/>
<polygon fill="black" stroke="black" points="281.74,-34.35 271.18,-33.55 278.94,-40.76 281.74,-34.35"/>
</g>
<!-- :core:datastore&#45;proto -->
<g id="node8" class="node">
<title>:core:datastore&#45;proto</title>
<ellipse fill="none" stroke="black" cx="398.93" cy="-18" rx="88.49" ry="18"/>
<text text-anchor="middle" x="398.93" y="-12.57" font-family="Times New Roman,serif" font-size="14.00">:core:datastore&#45;proto</text>
</g>
<!-- :core:datastore&#45;&gt;:core:datastore&#45;proto -->
<g id="edge9" class="edge">
<title>:core:datastore&#45;&gt;:core:datastore&#45;proto</title>
<path fill="none" stroke="black" d="M398.18,-71.7C398.28,-64.41 398.4,-55.73 398.52,-47.54"/>
<polygon fill="black" stroke="black" points="402.02,-47.67 398.66,-37.62 395.02,-47.57 402.02,-47.67"/>
</g>
<!-- :core:notifications&#45;&gt;:core:common -->
<g id="edge13" class="edge">
<title>:core:notifications&#45;&gt;:core:common</title>
<path fill="none" stroke="black" d="M204.94,-73.29C183.58,-63.12 155.58,-49.79 132.67,-38.88"/>
<polygon fill="black" stroke="black" points="134.45,-35.85 123.92,-34.71 131.44,-42.17 134.45,-35.85"/>
</g>
<!-- :core:notifications&#45;&gt;:core:model -->
<g id="edge12" class="edge">
<title>:core:notifications&#45;&gt;:core:model</title>
<path fill="none" stroke="black" d="M237.93,-71.7C237.93,-64.41 237.93,-55.73 237.93,-47.54"/>
<polygon fill="black" stroke="black" points="241.43,-47.62 237.93,-37.62 234.43,-47.62 241.43,-47.62"/>
</g>
</g>
</svg>
