<?xml version="1.0" encoding="UTF-8" standalone="no"?>
<!DOCTYPE svg PUBLIC "-//W3C//DTD SVG 1.1//EN"
 "http://www.w3.org/Graphics/SVG/1.1/DTD/svg11.dtd">
<!-- Generated by graphviz version 11.0.0 (20240428.1522)
 -->
<!-- Title: G Pages: 1 -->
<svg width="686pt" height="260pt" viewBox="0.00 0.00 686.24 260.00" xmlns="http://www.w3.org/2000/svg">
<g id="graph0" class="graph" transform="scale(1 1) rotate(0) translate(4 256)">
<title>G</title>
<polygon fill="white" stroke="none" points="-4,4 -4,-256 682.24,-256 682.24,4 -4,4"/>
<!-- :core:worker -->
<g id="node1" class="node">
<title>:core:worker</title>
<ellipse fill="none" stroke="black" cx="239.7" cy="-234" rx="57.05" ry="18"/>
<text text-anchor="middle" x="239.7" y="-228.57" font-family="Times New Roman,serif" font-size="14.00">:core:worker</text>
</g>
<!-- :core:data -->
<g id="node2" class="node">
<title>:core:data</title>
<ellipse fill="none" stroke="black" cx="288.7" cy="-162" rx="46.57" ry="18"/>
<text text-anchor="middle" x="288.7" y="-156.57" font-family="Times New Roman,serif" font-size="14.00">:core:data</text>
</g>
<!-- :core:worker&#45;&gt;:core:data -->
<g id="edge1" class="edge">
<title>:core:worker&#45;&gt;:core:data</title>
<path fill="none" stroke="red" stroke-width="2" d="M251.56,-216.05C257.22,-207.97 264.11,-198.12 270.42,-189.11"/>
<polygon fill="red" stroke="red" stroke-width="2" points="272.34,-192.47 275.21,-182.27 266.61,-188.45 272.34,-192.47"/>
</g>
<!-- :core:model -->
<g id="node3" class="node">
<title>:core:model</title>
<ellipse fill="none" stroke="black" cx="197.7" cy="-18" rx="54.06" ry="18"/>
<text text-anchor="middle" x="197.7" y="-12.57" font-family="Times New Roman,serif" font-size="14.00">:core:model</text>
</g>
<!-- :core:worker&#45;&gt;:core:model -->
<g id="edge2" class="edge">
<title>:core:worker&#45;&gt;:core:model</title>
<path fill="none" stroke="black" d="M193.51,-223.22C137.95,-208.7 47.12,-175.56 6.7,-108 -24.82,-55.33 67.03,-33.47 134.07,-24.66"/>
<polygon fill="black" stroke="black" points="134.43,-28.14 143.93,-23.44 133.57,-21.19 134.43,-28.14"/>
</g>
<!-- :core:common -->
<g id="node4" class="node">
<title>:core:common</title>
<ellipse fill="none" stroke="black" cx="593.7" cy="-18" rx="64.04" ry="18"/>
<text text-anchor="middle" x="593.7" y="-12.57" font-family="Times New Roman,serif" font-size="14.00">:core:common</text>
</g>
<!-- :core:worker&#45;&gt;:core:common -->
<g id="edge3" class="edge">
<title>:core:worker&#45;&gt;:core:common</title>
<path fill="none" stroke="black" d="M290.99,-225.88C395.16,-210.25 625.55,-169.4 671.7,-108 681.31,-95.21 679.19,-86.14 671.7,-72 664.3,-58.03 651.39,-47.06 638.17,-38.81"/>
<polygon fill="black" stroke="black" points="640.29,-35.99 629.88,-34.04 636.8,-42.06 640.29,-35.99"/>
</g>
<!-- :core:notifications -->
<g id="node5" class="node">
<title>:core:notifications</title>
<ellipse fill="none" stroke="black" cx="92.7" cy="-90" rx="76.51" ry="18"/>
<text text-anchor="middle" x="92.7" y="-84.58" font-family="Times New Roman,serif" font-size="14.00">:core:notifications</text>
</g>
<!-- :core:worker&#45;&gt;:core:notifications -->
<g id="edge4" class="edge">
<title>:core:worker&#45;&gt;:core:notifications</title>
<path fill="none" stroke="black" d="M222.55,-216.43C196.91,-191.66 148.39,-144.8 118.47,-115.9"/>
<polygon fill="black" stroke="black" points="120.91,-113.38 111.28,-108.95 116.05,-118.42 120.91,-113.38"/>
</g>
<!-- :core:data&#45;&gt;:core:model -->
<g id="edge8" class="edge">
<title>:core:data&#45;&gt;:core:model</title>
<path fill="none" stroke="black" d="M261.14,-147.23C245.76,-138.15 227.56,-124.82 216.7,-108 205.1,-90.03 200.45,-66.19 198.65,-47.7"/>
<polygon fill="black" stroke="black" points="202.16,-47.67 197.94,-37.95 195.18,-48.18 202.16,-47.67"/>
</g>
<!-- :core:data&#45;&gt;:core:common -->
<g id="edge5" class="edge">
<title>:core:data&#45;&gt;:core:common</title>
<path fill="none" stroke="black" d="M335.53,-161.47C424.77,-161.24 613.94,-155.09 654.7,-108 672.88,-86.99 649.52,-60.46 626.65,-41.85"/>
<polygon fill="black" stroke="black" points="628.91,-39.17 618.87,-35.81 624.63,-44.7 628.91,-39.17"/>
</g>
<!-- :core:data&#45;&gt;:core:notifications -->
<g id="edge10" class="edge">
<title>:core:data&#45;&gt;:core:notifications</title>
<path fill="none" stroke="black" d="M255.45,-149.13C224.96,-138.24 179.35,-121.95 144.16,-109.38"/>
<polygon fill="black" stroke="black" points="145.62,-106.18 135.03,-106.12 143.27,-112.78 145.62,-106.18"/>
</g>
<!-- :core:database -->
<g id="node6" class="node">
<title>:core:database</title>
<ellipse fill="none" stroke="black" cx="581.7" cy="-90" rx="63.54" ry="18"/>
<text text-anchor="middle" x="581.7" y="-84.58" font-family="Times New Roman,serif" font-size="14.00">:core:database</text>
</g>
<!-- :core:data&#45;&gt;:core:database -->
<g id="edge6" class="edge">
<title>:core:data&#45;&gt;:core:database</title>
<path fill="none" stroke="red" stroke-width="2" d="M327.61,-151.7C377.7,-139.74 465.18,-118.84 523.28,-104.96"/>
<polygon fill="red" stroke="red" stroke-width="2" points="522.27,-108.8 531.18,-103.07 520.64,-101.99 522.27,-108.8"/>
</g>
<!-- :core:datastore -->
<g id="node7" class="node">
<title>:core:datastore</title>
<ellipse fill="none" stroke="black" cx="434.7" cy="-90" rx="65.04" ry="18"/>
<text text-anchor="middle" x="434.7" y="-84.58" font-family="Times New Roman,serif" font-size="14.00">:core:datastore</text>
</g>
<!-- :core:data&#45;&gt;:core:datastore -->
<g id="edge7" class="edge">
<title>:core:data&#45;&gt;:core:datastore</title>
<path fill="none" stroke="black" d="M317.2,-147.34C338.74,-137.01 368.64,-122.67 392.89,-111.05"/>
<polygon fill="black" stroke="black" points="394.37,-114.22 401.87,-106.74 391.34,-107.91 394.37,-114.22"/>
</g>
<!-- :core:analytics -->
<g id="node8" class="node">
<title>:core:analytics</title>
<ellipse fill="none" stroke="black" cx="288.7" cy="-90" rx="63.04" ry="18"/>
<text text-anchor="middle" x="288.7" y="-84.58" font-family="Times New Roman,serif" font-size="14.00">:core:analytics</text>
</g>
<!-- :core:data&#45;&gt;:core:analytics -->
<g id="edge9" class="edge">
<title>:core:data&#45;&gt;:core:analytics</title>
<path fill="none" stroke="black" d="M288.7,-143.7C288.7,-136.41 288.7,-127.73 288.7,-119.54"/>
<polygon fill="black" stroke="black" points="292.2,-119.62 288.7,-109.62 285.2,-119.62 292.2,-119.62"/>
</g>
<!-- :core:notifications&#45;&gt;:core:model -->
<g id="edge16" class="edge">
<title>:core:notifications&#45;&gt;:core:model</title>
<path fill="none" stroke="black" d="M117.32,-72.59C131.57,-63.08 149.69,-51 165.12,-40.72"/>
<polygon fill="black" stroke="black" points="166.68,-43.89 173.06,-35.43 162.8,-38.06 166.68,-43.89"/>
</g>
<!-- :core:notifications&#45;&gt;:core:common -->
<g id="edge17" class="edge">
<title>:core:notifications&#45;&gt;:core:common</title>
<path fill="none" stroke="black" d="M157.03,-79.96C176.22,-77.32 197.3,-74.48 216.7,-72 351.22,-54.79 386.09,-59.22 519.7,-36 524.94,-35.09 530.37,-34.04 535.8,-32.93"/>
<polygon fill="black" stroke="black" points="536.35,-36.39 545.4,-30.87 534.89,-29.54 536.35,-36.39"/>
</g>
<!-- :core:database&#45;&gt;:core:model -->
<g id="edge11" class="edge">
<title>:core:database&#45;&gt;:core:model</title>
<path fill="none" stroke="red" stroke-width="2" d="M534.67,-77.61C526.05,-75.65 517.12,-73.7 508.7,-72 421.76,-54.49 320.38,-37.92 257.61,-28.12"/>
<polygon fill="red" stroke="red" stroke-width="2" points="259.76,-24.91 249.34,-26.83 258.68,-31.83 259.76,-24.91"/>
</g>
<!-- :core:database&#45;&gt;:core:common -->
<g id="edge12" class="edge">
<title>:core:database&#45;&gt;:core:common</title>
<path fill="none" stroke="black" d="M584.67,-71.7C585.93,-64.32 587.44,-55.52 588.86,-47.25"/>
<polygon fill="black" stroke="black" points="592.27,-48.04 590.51,-37.6 585.37,-46.86 592.27,-48.04"/>
</g>
<!-- :core:datastore&#45;&gt;:core:model -->
<g id="edge14" class="edge">
<title>:core:datastore&#45;&gt;:core:model</title>
<path fill="none" stroke="black" d="M391.23,-76.16C350.75,-64.2 290.42,-46.39 247.9,-33.83"/>
<polygon fill="black" stroke="black" points="248.99,-30.5 238.41,-31.02 247.01,-37.21 248.99,-30.5"/>
</g>
<!-- :core:datastore&#45;&gt;:core:common -->
<g id="edge15" class="edge">
<title>:core:datastore&#45;&gt;:core:common</title>
<path fill="none" stroke="black" d="M468.42,-74.15C492.21,-63.68 524.31,-49.55 550.06,-38.21"/>
<polygon fill="black" stroke="black" points="551.17,-41.55 558.92,-34.31 548.35,-35.14 551.17,-41.55"/>
</g>
<!-- :core:datastore&#45;proto -->
<g id="node9" class="node">
<title>:core:datastore&#45;proto</title>
<ellipse fill="none" stroke="black" cx="422.7" cy="-18" rx="88.49" ry="18"/>
<text text-anchor="middle" x="422.7" y="-12.57" font-family="Times New Roman,serif" font-size="14.00">:core:datastore&#45;proto</text>
</g>
<!-- :core:datastore&#45;&gt;:core:datastore&#45;proto -->
<g id="edge13" class="edge">
<title>:core:datastore&#45;&gt;:core:datastore&#45;proto</title>
<path fill="none" stroke="black" d="M431.73,-71.7C430.47,-64.32 428.96,-55.52 427.54,-47.25"/>
<polygon fill="black" stroke="black" points="431.03,-46.86 425.89,-37.6 424.13,-48.04 431.03,-46.86"/>
</g>
</g>
</svg>
